<?xml version="1.0" encoding="UTF-8"?>
<!DOCTYPE svg PUBLIC "-//W3C//DTD SVG 1.1//EN" "http://www.w3.org/Graphics/SVG/1.1/DTD/svg11.dtd">
<!-- Creator: CorelDRAW 2021 (64-Bit Not for commercial use) -->
<svg xmlns="http://www.w3.org/2000/svg" xml:space="preserve" width="1.03407in" height="0.413929in" version="1.1" style="shape-rendering:geometricPrecision; text-rendering:geometricPrecision; image-rendering:optimizeQuality; fill-rule:evenodd; clip-rule:evenodd"
viewBox="0 0 152.53 61.06"
 xmlns:xlink="http://www.w3.org/1999/xlink"
 xmlns:xodm="http://www.corel.com/coreldraw/odm/2003">
 <defs>
  <style type="text/css">
   <![CDATA[
    .fil3 {fill:#231F20}
    .fil0 {fill:black;fill-rule:nonzero}
    .fil2 {fill:#231F20;fill-rule:nonzero}
    .fil1 {fill:white;fill-rule:nonzero}
   ]]>
  </style>
 </defs>
 <g id="LP1">
  <metadata id="CorelCorpID_0Corel-Layer"/>
  <g id="_1559521340784">
   <g>
    <path class="fil0" d="M144.23 18.14l1.43 -0.03 0.08 4.65c0.01,0.29 0.1,0.54 0.51,0.54 0.41,-0.01 0.49,-0.33 0.48,-0.59l-0.08 -4.6 1.43 -0.02 0.07 4.42c0.02,1.03 -0.42,1.84 -1.89,1.86 -1.21,0.02 -1.93,-0.55 -1.95,-1.8l-0.07 -4.42z"/>
    <path class="fil0" d="M150.12 22.11l0.01 0.44c0,0.35 0.13,0.69 0.59,0.68 0.33,-0.01 0.47,-0.31 0.47,-0.62 -0.01,-0.51 -0.44,-0.69 -0.82,-0.92 -0.41,-0.2 -0.78,-0.47 -1.1,-0.79 -0.29,-0.33 -0.45,-0.77 -0.44,-1.21 -0.09,-0.88 0.55,-1.67 1.43,-1.77 0.11,-0.01 0.23,-0.01 0.34,-0.01 0.93,-0.07 1.75,0.62 1.84,1.55 0.02,0.12 0.02,0.24 0.01,0.37l-1.31 0.02c-0.01,-0.35 -0.02,-0.84 -0.49,-0.87 -0.23,-0.03 -0.45,0.13 -0.49,0.36l0 0.05c-0.04,0.37 0.16,0.55 0.45,0.74 0.47,0.25 0.92,0.53 1.35,0.84 0.33,0.31 0.52,0.73 0.55,1.18l0 0.17 -0.01 0.1 0.01 0.1 0 0.17c-0.03,0.8 -0.63,1.48 -1.45,1.58 -0.12,0.02 -0.25,0.02 -0.38,0.01 -1.32,0.02 -1.88,-0.7 -1.89,-1.52l-0.01 -0.65 1.33 -0.02 -0.01 -0z"/>
    <path class="fil0" d="M131.07 29.94c6.53,-0.09 11.75,-5.45 11.66,-11.98 -0.09,-6.53 -5.46,-11.75 -11.98,-11.65 -6.53,0.09 -11.75,5.46 -11.65,11.98l0 0.11c0.11,6.51 5.47,11.69 11.98,11.58l0.05 -0 -0.05 -0.04z"/>
    <path class="fil1" d="M131.04 27.73c5.32,-0.1 9.54,-4.5 9.44,-9.82 -0.1,-5.32 -4.5,-9.54 -9.82,-9.44 -5.32,0.1 -9.54,4.5 -9.44,9.82 0,0 0,0 -0,0.01 0.11,5.31 4.5,9.54 9.82,9.43z"/>
    <path class="fil0" d="M125.01 11.88l2.18 -0.04 0.12 7.07c0.01,0.44 0.15,0.83 0.77,0.82 0.62,-0.01 0.74,-0.51 0.73,-0.91l-0.11 -6.93 2.18 -0.03 0.11 6.74c0.02,1.57 -0.65,2.78 -2.89,2.82 -1.85,0.03 -2.93,-0.83 -2.97,-2.72l-0.11 -6.81z"/>
    <polygon class="fil0" points="131.94,24.47 131.78,15.15 133.96,15.11 134.08,22.56 136.75,22.52 136.79,24.38 "/>
    <g>
     <path class="fil0" d="M127.86 23.36l0.28 -0c0.19,-0 0.25,0.12 0.25,0.26 0,0.13 0.02,0.25 0.06,0.37l0.19 -0c-0.04,0 -0.05,-0.06 -0.06,-0.09 -0.01,-0.03 -0,-0.22 -0.01,-0.32 0,-0.14 -0.12,-0.26 -0.26,-0.27 0.16,-0.02 0.28,-0.16 0.27,-0.32 -0.01,-0.34 -0.2,-0.41 -0.49,-0.41l-0.4 0 0.02 1.45 0.16 -0 -0.01 -0.64 -0 -0.03zm-0.01 -0.7l0.23 -0c0.1,-0 0.3,-0.01 0.31,0.25 0.01,0.14 -0.09,0.26 -0.23,0.27l-0.3 0.01 -0.01 -0.52 -0 -0.01z"/>
    </g>
    <path class="fil0" d="M126.95 23.25c0.01,-0.65 0.54,-1.18 1.2,-1.17 0.65,0.01 1.18,0.54 1.17,1.2 -0.01,0.64 -0.52,1.16 -1.17,1.17 -0.66,0.01 -1.2,-0.52 -1.2,-1.18 -0,-0.01 -0,-0.02 -0,-0.02zm-0.14 0c0.01,0.73 0.61,1.31 1.34,1.3 0.73,-0.01 1.31,-0.61 1.3,-1.34 -0.01,-0.73 -0.62,-1.32 -1.35,-1.3 -0.73,0.02 -1.31,0.62 -1.3,1.35z"/>
    <path class="fil0" d="M116.08 20.76l-0.01 -0.41c-0.01,-0.52 -0.2,-0.79 -0.46,-0.78 -0.45,0.01 -0.55,0.24 -0.54,0.65l0.05 3.04c0.01,0.34 0.15,0.54 0.52,0.53 0.49,-0.01 0.52,-0.52 0.51,-0.88l-0.01 -0.55 1.43 -0.02 0.01 0.77c0.02,1.05 -0.57,1.79 -2.05,1.82 -1.28,0.02 -1.81,-0.62 -1.86,-1.8l-0 -0.06 -0 -0 -0.04 -2.59 -0 -0.06 0 -0.03c0.01,-1.26 0.62,-1.87 1.9,-1.89 1.3,-0.02 1.96,0.49 1.98,1.73l0.01 0.51 -1.43 0.02z"/>
    <path class="fil0" d="M117.46 8.42l-0.23 -0.16c-0.32,-0.26 -0.55,-0.26 -0.69,-0.07 -0.14,0.18 -0.1,0.44 0.08,0.57 0,0 0.01,0.01 0.01,0.01l0.04 0 1.8 1.31c0.14,0.13 0.35,0.13 0.49,-0.01 0,0 0,0 0,-0 0.21,-0.29 -0.08,-0.53 -0.3,-0.69l-0.33 -0.24 0.68 -0.88 0.44 0.32c0.63,0.45 0.81,1.13 0.17,2.01 -0.64,0.88 -1.29,0.82 -1.99,0.28l-1.41 -1.11c-0.61,-0.3 -0.86,-1.05 -0.56,-1.66 0.06,-0.12 0.14,-0.23 0.23,-0.32 0.53,-0.7 1.16,-0.94 1.9,-0.41l0.3 0.22 -0.6 0.85 -0.04 0z"/>
    <polygon class="fil0" points="120.75,8.99 117.77,5.63 118.55,4.93 120.95,7.62 121.91,6.76 122.5,7.43 "/>
    <g>
     <path class="fil0" d="M123.87 6.59l-0.37 -0.78 0.69 -0.42 0.57 0.68 0.92 -0.54 -3.11 -3.42 -1.1 0.64 1.42 4.38 0.91 -0.54 0.08 -0.01zm-0.11 -1.87l-0.53 0.3 -0.73 -1.89 1.25 1.59z"/>
    </g>
    <path class="fil0" d="M126.59 3.67l0.08 0.3c0.07,0.25 0.2,0.45 0.53,0.37 0.32,-0.08 0.29,-0.3 0.23,-0.53 -0.1,-0.36 -0.43,-0.43 -0.75,-0.52 -0.32,-0.07 -0.63,-0.19 -0.91,-0.37 -0.26,-0.18 -0.45,-0.45 -0.53,-0.76 -0.24,-0.61 0.06,-1.3 0.67,-1.54l0.04 -0c0.08,-0.03 0.16,-0.05 0.24,-0.06 0.65,-0.23 1.37,0.1 1.61,0.75 0,0 0,0 0,0 0.03,0.1 0.06,0.2 0.06,0.3l-0.97 0.24c-0.08,-0.25 -0.16,-0.6 -0.5,-0.54 -0.18,0.02 -0.3,0.18 -0.29,0.35 0.04,0.27 0.21,0.36 0.45,0.45 0.38,0.09 0.75,0.22 1.11,0.37 0.35,0.2 0.59,0.54 0.65,0.94 0.24,0.62 -0.06,1.31 -0.67,1.57 -0.09,0.03 -0.18,0.06 -0.28,0.07 -0.93,0.24 -1.46,-0.18 -1.62,-0.75l-0.12 -0.46 0.94 -0.22 0 0.03z"/>
    <path class="fil0" d="M129.98 3.11l0 0.31c0,0.26 0.1,0.48 0.44,0.47 0.34,-0.01 0.34,-0.23 0.33,-0.46 -0.01,-0.37 -0.33,-0.51 -0.62,-0.68 -0.29,-0.13 -0.55,-0.3 -0.79,-0.51 -0.23,-0.24 -0.35,-0.56 -0.34,-0.89 -0.09,-0.65 0.37,-1.25 1.02,-1.34 0,0 0,0 0,0l0.26 -0.01 0.02 -0 0.26 -0c0.57,0.05 1.05,0.49 1.13,1.08 0.02,0.11 0.02,0.22 0.01,0.33l-0.97 0.02c-0,-0.26 -0.01,-0.63 -0.37,-0.63 -0.17,-0.03 -0.32,0.09 -0.35,0.25 0,0 0,0 0,0l0 0.06c-0.01,0.24 0.13,0.45 0.34,0.54 0.34,0.18 0.67,0.39 0.99,0.61 0.29,0.27 0.45,0.66 0.43,1.05 0.11,0.66 -0.33,1.29 -0.99,1.4 0,0 0,0 0,0 -0.1,0.01 -0.2,0.02 -0.29,0 -0.97,0.02 -1.39,-0.49 -1.4,-1.08l-0.01 -0.48 0.98 -0.02 -0.08 -0.03z"/>
    <polygon class="fil0" points="132.36,4.64 133.19,0.22 134.23,0.42 133.39,4.84 "/>
    <polygon class="fil0" points="134.23,4.98 135.7,0.72 138.04,1.53 137.75,2.38 136.4,1.92 136.14,2.67 137.38,3.1 137.09,3.95 135.85,3.52 135.23,5.32 "/>
    <polygon class="fil0" points="136.96,5.99 139.21,2.09 140.12,2.61 137.88,6.51 "/>
    <polygon class="fil0" points="138.56,6.91 141.47,3.48 143.31,5.04 142.73,5.73 141.69,4.85 141.15,5.48 142.17,6.33 141.58,7.02 140.58,6.17 139.95,6.91 141.04,7.83 140.46,8.52 "/>
    <g>
     <path class="fil0" d="M141.72 10.1c0.17,0.27 0.41,0.48 0.7,0.61 0.37,0.11 0.76,0.01 1.04,-0.25l1.57 -1.24c0.38,-0.2 0.61,-0.59 0.61,-1.01 -0.1,-0.4 -0.29,-0.76 -0.57,-1.06l-0.71 -0.9 -3.53 2.74 0.88 1.12 -0 0.01zm2.67 -2.57c0.3,0.41 0.39,0.57 0.01,0.9l-1.15 0.91c-0.47,0.38 -0.68,0.56 -1.09,-0.03l2.22 -1.78z"/>
    </g>
    <polygon class="fil0" points="116.03,31.53 120.14,31.46 120.16,32.52 117.59,32.56 117.6,33.35 119.99,33.31 120,34.32 117.62,34.36 117.63,35.34 120.28,35.3 120.3,36.42 116.12,36.49 "/>
    <path class="fil0" d="M123.24 34.37l-0.03 -1.56 -1.3 1.58 1.33 -0.02zm0.02 1.07l-2.51 0.04 -0.02 -1.14 2.46 -3.03 1.2 -0.02 0.05 3.05 0.62 -0.01 0.02 1.07 -0.62 0.01 0.02 0.93 -1.2 0.02 -0.01 -0.93z"/>
    <path class="fil0" d="M128.07 32.96c-0.01,-0.27 -0.08,-0.48 -0.21,-0.63 -0.14,-0.15 -0.3,-0.23 -0.5,-0.22 -0.18,0.01 -0.33,0.08 -0.45,0.22 -0.12,0.14 -0.18,0.35 -0.17,0.62 0,0.28 0.07,0.49 0.2,0.63 0.13,0.14 0.29,0.22 0.47,0.21 0.19,-0 0.35,-0.08 0.48,-0.22 0.12,-0.14 0.19,-0.35 0.18,-0.61zm-2.5 2.26l1.37 -0.2c0.04,0.19 0.1,0.33 0.19,0.4 0.09,0.08 0.19,0.12 0.32,0.11 0.22,-0 0.39,-0.12 0.51,-0.34 0.09,-0.17 0.15,-0.51 0.19,-1.05 -0.16,0.17 -0.33,0.3 -0.5,0.38 -0.17,0.08 -0.38,0.12 -0.6,0.13 -0.45,0.01 -0.82,-0.15 -1.14,-0.45 -0.31,-0.31 -0.47,-0.71 -0.48,-1.19 -0.01,-0.33 0.06,-0.63 0.22,-0.91 0.15,-0.27 0.36,-0.48 0.63,-0.62 0.27,-0.14 0.61,-0.22 1.03,-0.22 0.5,-0.01 0.9,0.07 1.2,0.24 0.3,0.16 0.55,0.43 0.73,0.8 0.18,0.37 0.28,0.86 0.29,1.46 0.01,0.9 -0.16,1.55 -0.53,1.98 -0.37,0.42 -0.89,0.64 -1.56,0.65 -0.39,0.01 -0.71,-0.03 -0.94,-0.12 -0.23,-0.09 -0.42,-0.22 -0.57,-0.39 -0.16,-0.17 -0.28,-0.39 -0.36,-0.65z"/>
    <path class="fil0" d="M133.19 31.16l0.08 5.05 -1.39 0.02 -0.06 -3.31c-0.22,0.17 -0.44,0.32 -0.65,0.43 -0.21,0.11 -0.47,0.22 -0.79,0.32l-0.02 -1.13c0.47,-0.16 0.83,-0.35 1.09,-0.56 0.26,-0.22 0.46,-0.48 0.59,-0.79l1.14 -0.02z"/>
    <path class="fil0" d="M137.31 32.81c-0.01,-0.27 -0.08,-0.48 -0.21,-0.63 -0.14,-0.15 -0.3,-0.23 -0.5,-0.22 -0.18,0 -0.33,0.08 -0.45,0.22 -0.12,0.14 -0.18,0.35 -0.17,0.62 0,0.28 0.07,0.49 0.2,0.63 0.13,0.14 0.29,0.22 0.47,0.21 0.19,-0 0.35,-0.08 0.48,-0.22 0.12,-0.14 0.19,-0.35 0.18,-0.61zm-2.5 2.26l1.37 -0.2c0.04,0.19 0.1,0.33 0.19,0.4 0.09,0.08 0.19,0.12 0.32,0.11 0.22,-0 0.39,-0.12 0.51,-0.34 0.09,-0.17 0.15,-0.52 0.19,-1.05 -0.16,0.17 -0.33,0.3 -0.5,0.38 -0.17,0.08 -0.37,0.12 -0.6,0.13 -0.45,0.01 -0.82,-0.15 -1.14,-0.45 -0.31,-0.31 -0.47,-0.71 -0.48,-1.19 -0.01,-0.33 0.07,-0.63 0.22,-0.91 0.15,-0.27 0.36,-0.48 0.63,-0.62 0.27,-0.14 0.61,-0.22 1.03,-0.22 0.5,-0.01 0.9,0.07 1.2,0.23 0.3,0.17 0.55,0.43 0.73,0.8 0.19,0.37 0.29,0.86 0.3,1.47 0.01,0.9 -0.16,1.55 -0.53,1.98 -0.37,0.42 -0.89,0.64 -1.56,0.65 -0.4,0.01 -0.71,-0.03 -0.94,-0.12 -0.23,-0.09 -0.42,-0.22 -0.57,-0.39 -0.16,-0.17 -0.27,-0.39 -0.36,-0.65z"/>
    <path class="fil0" d="M139.34 31.14l4.02 -0.07 0.02 0.93c-0.35,0.32 -0.63,0.67 -0.86,1.04 -0.28,0.45 -0.49,0.96 -0.65,1.51 -0.12,0.43 -0.2,0.93 -0.24,1.52l-1.38 0.02c0.09,-0.81 0.25,-1.49 0.48,-2.05 0.22,-0.55 0.58,-1.14 1.08,-1.78l-2.45 0.04 -0.02 -1.16z"/>
    <path class="fil0" d="M145.34 33.5c0.01,0.63 0.07,1.06 0.19,1.29 0.11,0.23 0.28,0.34 0.49,0.34 0.14,-0 0.26,-0.05 0.36,-0.15 0.1,-0.1 0.18,-0.26 0.22,-0.47 0.04,-0.21 0.06,-0.54 0.06,-0.99 -0.01,-0.66 -0.07,-1.1 -0.19,-1.33 -0.11,-0.23 -0.28,-0.34 -0.51,-0.33 -0.23,0 -0.39,0.12 -0.49,0.36 -0.1,0.23 -0.14,0.66 -0.13,1.29zm-1.37 0.02c-0.02,-0.94 0.14,-1.6 0.48,-1.99 0.33,-0.38 0.85,-0.58 1.54,-0.59 0.33,-0.01 0.61,0.03 0.83,0.11 0.21,0.08 0.39,0.18 0.53,0.31 0.14,0.13 0.25,0.27 0.33,0.41 0.08,0.14 0.14,0.31 0.2,0.51 0.1,0.37 0.15,0.75 0.16,1.16 0.02,0.9 -0.12,1.56 -0.42,1.98 -0.3,0.42 -0.82,0.64 -1.56,0.65 -0.42,0.01 -0.76,-0.05 -1.02,-0.18 -0.26,-0.13 -0.47,-0.32 -0.64,-0.58 -0.13,-0.18 -0.22,-0.43 -0.29,-0.74 -0.07,-0.32 -0.11,-0.67 -0.12,-1.05z"/>
   </g>
   <g>
    <path class="fil0" d="M87.95 32l-18.57 0.18c-0.56,0 -1.02,-0.45 -1.03,-1.01l-0.26 -26.05c-0,-0.56 0.45,-1.02 1.01,-1.03l18.57 -0.18c0.56,-0.01 1.02,0.45 1.03,1.01l0.26 26.05c0,0.56 -0.45,1.02 -1.01,1.03z"/>
    <path class="fil0" d="M103.89 31.9l-12.38 0.12c-0.56,0.01 -1.02,-0.45 -1.03,-1.01l-0.26 -26.12c-0.01,-0.56 0.45,-1.02 1.01,-1.03l12.38 -0.12c0.56,-0.01 1.02,0.45 1.03,1.01l0.25 26.12c0,0.56 -0.45,1.02 -1.01,1.03z"/>
    <path class="fil0" d="M82.44 18.01c0.07,7.76 -6.23,14.1 -14.07,14.18 -7.85,0.08 -14.27,-6.15 -14.35,-13.91 -0.08,-7.75 6.22,-14.1 14.07,-14.18 7.85,-0.08 14.28,6.15 14.35,13.9z"/>
    <path class="fil1" d="M80.51 17.71c0.07,6.78 -5.38,12.34 -12.16,12.41 -6.78,0.07 -12.34,-5.38 -12.4,-12.16 -0.07,-6.78 5.38,-12.34 12.16,-12.4 6.78,-0.07 12.34,5.38 12.41,12.16z"/>
    <path class="fil0" d="M61.18 10.89c-0.02,0.08 -0.01,2.08 0.02,4.45l0.06 4.3 0.16 0.43c0.5,1.33 1.67,2.02 3.37,2.01 0.8,-0 1.27,-0.1 1.87,-0.4 0.56,-0.27 1.06,-0.74 1.3,-1.24 0.33,-0.67 0.34,-0.82 0.29,-5.47l-0.04 -4.29 -1.32 0.03 -1.33 0.03 0.03 4.32c0.03,4.62 0.04,4.5 -0.29,4.8 -0.18,0.17 -0.69,0.22 -0.95,0.08 -0.12,-0.06 -0.27,-0.21 -0.34,-0.35 -0.12,-0.24 -0.13,-0.37 -0.17,-4.56l-0.04 -4.3 -1.31 0.01c-1.3,0.01 -1.31,0.01 -1.34,0.16z"/>
    <path class="fil0" d="M70.03 15.02c-0.02,0.09 -0.01,2.63 0.02,5.65l0.06 5.48 2.87 -0.03 2.86 -0.03 -0.01 -1.23 -0.01 -1.22 -1.52 0.02 -1.51 0.02 -0.07 -4.4 -0.08 -4.4 -1.28 -0 -1.29 -0.01 -0.04 0.16z"/>
    <path class="fil1" d="M93.69 10.1c0,0.2 -0.15,0.35 -0.35,0.36 -0.2,0 -0.36,-0.16 -0.36,-0.35 0,-0.2 0.16,-0.35 0.35,-0.36 0.2,-0 0.36,0.15 0.36,0.35z"/>
    <path class="fil1" d="M84.79 27.87l0.25 -0.86c0.24,0.05 0.44,0.14 0.6,0.27 0.16,0.12 0.28,0.27 0.36,0.45 0.08,0.18 0.13,0.41 0.13,0.69 0,0.34 -0.04,0.62 -0.14,0.84 -0.1,0.22 -0.27,0.41 -0.52,0.57 -0.25,0.16 -0.57,0.24 -0.96,0.24 -0.52,0.01 -0.92,-0.13 -1.2,-0.4 -0.28,-0.27 -0.43,-0.66 -0.43,-1.17 -0,-0.4 0.07,-0.71 0.23,-0.94 0.16,-0.23 0.4,-0.4 0.73,-0.51l0.2 0.86c-0.1,0.03 -0.16,0.06 -0.21,0.1 -0.08,0.06 -0.13,0.12 -0.17,0.2 -0.04,0.08 -0.06,0.17 -0.06,0.26 0,0.22 0.09,0.39 0.27,0.51 0.13,0.09 0.34,0.13 0.62,0.12 0.35,-0 0.59,-0.06 0.71,-0.17 0.13,-0.11 0.19,-0.25 0.19,-0.45 -0,-0.19 -0.05,-0.32 -0.16,-0.42 -0.11,-0.09 -0.26,-0.16 -0.46,-0.2z"/>
    <polygon class="fil1" points="82.92,26.68 82.9,24.07 83.57,24.06 83.58,25.7 84.08,25.69 84.07,24.18 84.71,24.17 84.72,25.68 85.34,25.68 85.33,24 86.04,23.99 86.07,26.65 "/>
    <path class="fil1" d="M84.16 22.61l-0.01 -0.41c0,-0.04 -0.01,-0.13 -0.05,-0.26 -0.01,-0.06 -0.05,-0.12 -0.1,-0.16 -0.05,-0.04 -0.11,-0.06 -0.18,-0.06 -0.1,0 -0.18,0.03 -0.23,0.1 -0.06,0.07 -0.08,0.18 -0.08,0.36l0 0.43 0.64 -0.01zm1.88 0.96l-3.15 0.03 -0.02 -1.62c-0,-0.3 0.02,-0.53 0.07,-0.69 0.05,-0.16 0.14,-0.29 0.28,-0.39 0.14,-0.1 0.31,-0.15 0.51,-0.15 0.18,-0 0.33,0.04 0.45,0.11 0.13,0.07 0.23,0.18 0.31,0.31 0.05,0.08 0.09,0.19 0.13,0.34 0.04,-0.12 0.08,-0.2 0.11,-0.25 0.02,-0.04 0.08,-0.09 0.17,-0.16 0.08,-0.07 0.15,-0.11 0.19,-0.14l0.91 -0.48 0.01 1.1 -0.96 0.53c-0.12,0.07 -0.2,0.13 -0.24,0.18 -0.05,0.07 -0.07,0.15 -0.07,0.24l0 0.08 1.28 -0.01 0.01 0.98z"/>
    <polygon class="fil1" points="82.86,20.56 82.83,17.61 83.61,17.6 83.62,18.59 85.99,18.57 86,19.54 83.63,19.56 83.64,20.55 "/>
    <polygon class="fil1" points="82.83,17.24 82.82,16.26 85.96,16.23 85.97,17.21 "/>
    <polygon class="fil1" points="82.81,15.67 82.79,13.27 83.46,13.26 83.48,14.69 84.03,14.68 84.02,13.46 84.65,13.46 84.66,14.68 85.95,14.66 85.96,15.64 "/>
    <polygon class="fil1" points="82.78,12.82 82.78,11.84 85.92,11.81 85.93,12.79 "/>
    <polygon class="fil1" points="82.77,11.26 82.74,8.65 83.41,8.65 83.43,10.28 83.93,10.27 83.92,8.76 84.56,8.75 84.57,10.27 85.19,10.26 85.18,8.58 85.89,8.58 85.91,11.23 "/>
    <path class="fil1" d="M83.44 7.2l1.72 -0.02 0 -0.24c-0,-0.2 -0.03,-0.35 -0.07,-0.43 -0.05,-0.09 -0.13,-0.15 -0.24,-0.2 -0.11,-0.05 -0.29,-0.07 -0.54,-0.07 -0.33,0 -0.56,0.06 -0.68,0.17 -0.12,0.11 -0.18,0.29 -0.18,0.54l0 0.24zm-0.7 0.98l-0.02 -1.44c-0,-0.28 0.04,-0.51 0.11,-0.69 0.07,-0.18 0.19,-0.32 0.33,-0.44 0.14,-0.12 0.31,-0.2 0.5,-0.25 0.19,-0.05 0.39,-0.08 0.61,-0.08 0.33,-0 0.6,0.03 0.78,0.11 0.19,0.07 0.34,0.18 0.47,0.32 0.13,0.13 0.21,0.28 0.25,0.44 0.06,0.21 0.09,0.41 0.09,0.58l0.01 1.44 -3.14 0.03z"/>
    <path class="fil1" d="M78.65 5.31c-0.84,0.01 -1.52,0.67 -1.51,1.48 0.01,0.81 0.7,1.45 1.54,1.44 0.84,-0.01 1.52,-0.67 1.51,-1.48 -0.01,-0.8 -0.7,-1.45 -1.54,-1.44zm0.03 3.34c-1.08,0.01 -1.96,-0.83 -1.97,-1.86 -0.01,-1.04 0.85,-1.89 1.93,-1.9 1.08,-0.01 1.96,0.83 1.97,1.86 0.01,1.04 -0.85,1.89 -1.93,1.9z"/>
    <path class="fil1" d="M78.37 6.54l0.29 -0c0.03,-0 0.09,-0.01 0.18,-0.03 0.04,-0.01 0.08,-0.03 0.11,-0.07 0.03,-0.04 0.04,-0.08 0.04,-0.13 0,-0.07 -0.02,-0.13 -0.07,-0.16 -0.04,-0.04 -0.13,-0.06 -0.25,-0.06l-0.3 0 0 0.44zm-0.66 1.31l-0.02 -2.18 1.12 -0.01c0.21,-0 0.37,0.01 0.48,0.05 0.11,0.03 0.2,0.1 0.27,0.2 0.07,0.1 0.1,0.21 0.11,0.35 0,0.12 -0.02,0.23 -0.07,0.32 -0.05,0.09 -0.12,0.16 -0.21,0.22 -0.06,0.04 -0.14,0.07 -0.24,0.09 0.08,0.03 0.14,0.05 0.18,0.08 0.03,0.02 0.06,0.06 0.11,0.12 0.04,0.06 0.08,0.1 0.09,0.13l0.34 0.63 -0.76 0.01 -0.37 -0.66c-0.04,-0.08 -0.09,-0.14 -0.12,-0.17 -0.05,-0.03 -0.11,-0.05 -0.17,-0.05l-0.06 0 0.01 0.89 -0.68 0.01z"/>
    <path class="fil1" d="M94.01 30.65l-0.06 -0.7c0.13,-0.02 0.23,-0.05 0.3,-0.09 0.11,-0.08 0.16,-0.19 0.16,-0.33 -0,-0.11 -0.03,-0.19 -0.09,-0.24 -0.06,-0.06 -0.12,-0.08 -0.2,-0.08 -0.07,0 -0.14,0.03 -0.19,0.09 -0.06,0.05 -0.11,0.18 -0.16,0.38 -0.08,0.32 -0.19,0.56 -0.33,0.69 -0.14,0.14 -0.31,0.21 -0.53,0.21 -0.14,0 -0.27,-0.03 -0.4,-0.1 -0.12,-0.07 -0.22,-0.17 -0.3,-0.32 -0.07,-0.14 -0.11,-0.34 -0.12,-0.58 -0,-0.3 0.06,-0.54 0.19,-0.7 0.13,-0.16 0.33,-0.26 0.62,-0.29l0.05 0.69c-0.13,0.02 -0.22,0.06 -0.27,0.12 -0.06,0.06 -0.08,0.14 -0.08,0.25 0,0.08 0.02,0.15 0.06,0.19 0.04,0.04 0.09,0.06 0.15,0.06 0.04,0 0.08,-0.02 0.12,-0.05 0.04,-0.03 0.07,-0.12 0.1,-0.25 0.08,-0.32 0.16,-0.55 0.23,-0.69 0.08,-0.14 0.18,-0.24 0.3,-0.31 0.12,-0.06 0.26,-0.1 0.41,-0.1 0.18,-0 0.34,0.04 0.49,0.12 0.15,0.08 0.26,0.2 0.34,0.35 0.08,0.15 0.12,0.34 0.12,0.57 0,0.41 -0.08,0.69 -0.26,0.85 -0.18,0.16 -0.41,0.25 -0.68,0.27z"/>
    <path class="fil1" d="M93.84 26.89l-0.98 0.27 0.99 0.25 -0 -0.52zm0.59 -0.16l0.01 0.84 0.45 0.11 0.01 0.75 -2.75 -0.87 -0.01 -0.8 2.73 -0.92 0.01 0.77 -0.45 0.12z"/>
    <polygon class="fil1" points="92.13,25.71 92.11,23.88 92.7,23.88 92.71,24.96 93.19,24.96 93.18,24.03 93.73,24.03 93.74,24.95 94.86,24.94 94.87,25.68 "/>
    <polygon class="fil1" points="92.11,23.57 92.09,21.6 92.67,21.6 92.68,22.83 93.12,22.82 93.11,21.68 93.67,21.67 93.68,22.82 94.22,22.82 94.21,21.54 94.83,21.54 94.85,23.55 "/>
    <polygon class="fil1" points="92.09,21.42 92.06,19.18 92.74,19.17 92.75,19.93 94.81,19.9 94.82,20.64 92.76,20.66 92.76,21.41 "/>
    <polygon class="fil1" points="92.06,19.17 92.06,18.35 92.98,17.86 92.05,17.39 92.04,16.58 93.64,17.49 94.79,17.48 94.8,18.22 93.65,18.23 "/>
    <path class="fil1" d="M92.01 13.85l-0.01 -0.74 1.63 -0.02c0.16,-0 0.32,0.02 0.46,0.06 0.14,0.04 0.27,0.11 0.38,0.2 0.11,0.09 0.19,0.19 0.23,0.29 0.06,0.14 0.09,0.31 0.1,0.51 0,0.12 -0.01,0.24 -0.02,0.38 -0.02,0.14 -0.05,0.25 -0.11,0.35 -0.06,0.09 -0.13,0.18 -0.23,0.25 -0.1,0.08 -0.21,0.13 -0.32,0.16 -0.17,0.04 -0.33,0.07 -0.46,0.07l-1.64 0.01 -0.01 -0.74 1.67 -0.01c0.15,-0 0.27,-0.04 0.35,-0.11 0.08,-0.08 0.12,-0.18 0.12,-0.3 -0,-0.13 -0.04,-0.23 -0.13,-0.3 -0.08,-0.07 -0.2,-0.11 -0.35,-0.11l-1.67 0.02z"/>
    <path class="fil1" d="M93.84 12.82l-0.06 -0.7c0.13,-0.02 0.23,-0.05 0.3,-0.09 0.11,-0.08 0.16,-0.19 0.16,-0.33 -0,-0.11 -0.03,-0.19 -0.09,-0.24 -0.06,-0.06 -0.12,-0.08 -0.2,-0.08 -0.07,0 -0.14,0.03 -0.19,0.08 -0.05,0.05 -0.11,0.18 -0.16,0.38 -0.08,0.32 -0.19,0.56 -0.33,0.69 -0.14,0.14 -0.31,0.21 -0.53,0.21 -0.14,0 -0.27,-0.03 -0.4,-0.1 -0.13,-0.07 -0.22,-0.17 -0.3,-0.32 -0.07,-0.14 -0.11,-0.34 -0.12,-0.58 -0,-0.3 0.06,-0.54 0.19,-0.7 0.13,-0.16 0.33,-0.26 0.62,-0.29l0.05 0.7c-0.13,0.02 -0.22,0.06 -0.27,0.12 -0.06,0.06 -0.08,0.14 -0.08,0.25 0,0.08 0.02,0.15 0.06,0.19 0.04,0.04 0.09,0.06 0.15,0.06 0.04,0 0.08,-0.02 0.12,-0.06 0.04,-0.03 0.07,-0.11 0.1,-0.25 0.08,-0.32 0.16,-0.55 0.23,-0.69 0.08,-0.14 0.18,-0.24 0.3,-0.31 0.12,-0.07 0.26,-0.1 0.41,-0.1 0.18,-0 0.34,0.04 0.49,0.12 0.15,0.08 0.26,0.2 0.34,0.35 0.08,0.15 0.12,0.34 0.12,0.57 0,0.41 -0.08,0.69 -0.26,0.85 -0.18,0.16 -0.41,0.25 -0.68,0.27z"/>
    <path class="fil1" d="M93.57 7.76l0.22 -0.65c0.21,0.04 0.38,0.11 0.52,0.2 0.14,0.09 0.25,0.2 0.32,0.34 0.07,0.14 0.11,0.31 0.11,0.52 0,0.26 -0.04,0.47 -0.12,0.64 -0.08,0.16 -0.24,0.31 -0.45,0.43 -0.22,0.12 -0.5,0.18 -0.83,0.19 -0.45,0 -0.81,-0.1 -1.05,-0.31 -0.25,-0.21 -0.37,-0.5 -0.37,-0.89 -0,-0.3 0.06,-0.54 0.2,-0.71 0.14,-0.17 0.35,-0.3 0.64,-0.39l0.17 0.65c-0.08,0.02 -0.14,0.05 -0.18,0.07 -0.06,0.04 -0.11,0.09 -0.15,0.15 -0.03,0.06 -0.05,0.12 -0.05,0.2 0,0.17 0.08,0.29 0.24,0.38 0.12,0.07 0.3,0.1 0.54,0.1 0.3,-0 0.51,-0.05 0.63,-0.13 0.11,-0.08 0.17,-0.2 0.16,-0.34 0,-0.14 -0.05,-0.25 -0.14,-0.32 -0.09,-0.07 -0.22,-0.12 -0.4,-0.15z"/>
    <path class="fil1" d="M93.63 5.52l-0.98 0.27 0.99 0.25 -0 -0.52zm0.59 -0.16l0.01 0.84 0.45 0.11 0.01 0.75 -2.75 -0.87 -0.01 -0.8 2.73 -0.92 0.01 0.77 -0.45 0.12z"/>
    <polygon class="fil1" points="97.74,30.1 97.71,26.9 98.78,26.89 98.8,28.89 99.59,28.88 99.57,27.03 100.59,27.02 100.61,28.88 101.59,28.86 101.58,26.8 102.71,26.79 102.74,30.05 "/>
    <path class="fil1" d="M100.67 24.44l-1.57 0.01 1.58 1.02 -0.01 -1.03zm1.08 -0.01l0.02 1.96 -1.14 0.01 -3.03 -1.93 -0.01 -0.94 3.07 -0.03 -0.01 -0.49 1.08 -0.01 0 0.48 0.93 -0.01 0.01 0.94 -0.94 0.01z"/>
    <path class="fil1" d="M101.14 21.55c0.22,-0 0.4,-0.06 0.54,-0.16 0.14,-0.11 0.21,-0.23 0.21,-0.36 -0,-0.13 -0.07,-0.24 -0.22,-0.34 -0.14,-0.1 -0.32,-0.15 -0.54,-0.15 -0.22,0 -0.4,0.05 -0.54,0.16 -0.14,0.1 -0.21,0.22 -0.21,0.36 0,0.14 0.07,0.25 0.21,0.35 0.14,0.1 0.33,0.15 0.55,0.14zm-2.15 -0.04c0.17,-0 0.31,-0.05 0.42,-0.13 0.1,-0.08 0.16,-0.2 0.15,-0.34 -0,-0.12 -0.05,-0.22 -0.16,-0.3 -0.11,-0.08 -0.24,-0.12 -0.4,-0.12 -0.17,0 -0.31,0.04 -0.42,0.13 -0.11,0.08 -0.16,0.19 -0.16,0.32 0,0.13 0.05,0.23 0.16,0.32 0.11,0.08 0.24,0.12 0.41,0.12zm0.99 0.47c-0.11,0.17 -0.24,0.3 -0.38,0.38 -0.19,0.11 -0.42,0.16 -0.67,0.16 -0.42,0 -0.76,-0.14 -1.03,-0.45 -0.21,-0.24 -0.31,-0.55 -0.32,-0.94 -0.01,-0.52 0.12,-0.9 0.37,-1.15 0.25,-0.25 0.57,-0.38 0.96,-0.38 0.22,-0 0.44,0.04 0.63,0.14 0.15,0.07 0.29,0.19 0.43,0.34 0.13,-0.21 0.3,-0.37 0.51,-0.48 0.21,-0.1 0.45,-0.16 0.71,-0.16 0.25,-0 0.48,0.04 0.7,0.13 0.22,0.09 0.39,0.19 0.51,0.32 0.12,0.13 0.21,0.29 0.26,0.48 0.06,0.19 0.09,0.4 0.09,0.62 0,0.41 -0.06,0.72 -0.18,0.94 -0.12,0.22 -0.31,0.39 -0.55,0.5 -0.24,0.12 -0.51,0.17 -0.81,0.18 -0.29,0 -0.54,-0.05 -0.75,-0.15 -0.2,-0.1 -0.36,-0.27 -0.48,-0.48z"/>
    <path class="fil1" d="M99.26 16.96c-0.27,0 -0.48,0.06 -0.63,0.16 -0.15,0.11 -0.23,0.24 -0.23,0.39 0,0.14 0.07,0.26 0.21,0.35 0.14,0.09 0.35,0.14 0.63,0.14 0.28,-0 0.49,-0.05 0.64,-0.15 0.15,-0.1 0.22,-0.22 0.22,-0.37 0,-0.15 -0.07,-0.28 -0.22,-0.38 -0.14,-0.1 -0.35,-0.14 -0.62,-0.14zm2.25 1.96l-0.18 -1.07c0.19,-0.03 0.33,-0.08 0.41,-0.15 0.08,-0.07 0.12,-0.15 0.12,-0.25 -0,-0.17 -0.12,-0.3 -0.34,-0.4 -0.17,-0.07 -0.52,-0.12 -1.05,-0.15 0.17,0.12 0.3,0.26 0.38,0.39 0.08,0.14 0.12,0.29 0.12,0.47 0.01,0.35 -0.15,0.64 -0.47,0.88 -0.32,0.24 -0.72,0.36 -1.2,0.37 -0.33,0 -0.63,-0.06 -0.91,-0.17 -0.28,-0.12 -0.48,-0.28 -0.62,-0.49 -0.14,-0.21 -0.21,-0.48 -0.22,-0.8 -0,-0.39 0.08,-0.7 0.25,-0.93 0.17,-0.24 0.44,-0.43 0.81,-0.57 0.37,-0.14 0.86,-0.22 1.48,-0.22 0.9,-0.01 1.57,0.13 1.99,0.42 0.42,0.29 0.64,0.69 0.64,1.21 0,0.31 -0.04,0.55 -0.13,0.73 -0.09,0.18 -0.22,0.33 -0.4,0.45 -0.18,0.12 -0.4,0.21 -0.66,0.28z"/>
    <path class="fil1" d="M99.22 13.3c-0.27,0 -0.48,0.06 -0.63,0.16 -0.15,0.11 -0.23,0.24 -0.23,0.39 0,0.14 0.07,0.26 0.21,0.35 0.14,0.09 0.35,0.14 0.63,0.14 0.28,-0 0.49,-0.05 0.64,-0.15 0.15,-0.1 0.22,-0.22 0.22,-0.37 0,-0.15 -0.07,-0.28 -0.22,-0.38 -0.15,-0.1 -0.35,-0.15 -0.62,-0.14zm2.25 1.96l-0.18 -1.07c0.19,-0.03 0.33,-0.08 0.41,-0.15 0.08,-0.07 0.12,-0.15 0.12,-0.25 -0,-0.17 -0.12,-0.3 -0.34,-0.4 -0.16,-0.07 -0.52,-0.12 -1.05,-0.15 0.17,0.13 0.3,0.26 0.38,0.39 0.08,0.14 0.12,0.29 0.12,0.47 0,0.34 -0.15,0.64 -0.47,0.88 -0.32,0.24 -0.72,0.36 -1.21,0.37 -0.33,0 -0.63,-0.05 -0.91,-0.17 -0.28,-0.12 -0.48,-0.28 -0.62,-0.49 -0.14,-0.21 -0.21,-0.48 -0.22,-0.8 -0,-0.39 0.08,-0.7 0.25,-0.93 0.17,-0.24 0.44,-0.43 0.81,-0.57 0.37,-0.14 0.86,-0.22 1.48,-0.22 0.9,-0.01 1.57,0.13 1.99,0.42 0.42,0.29 0.64,0.69 0.64,1.21 0,0.31 -0.04,0.55 -0.13,0.73 -0.09,0.18 -0.22,0.33 -0.4,0.45 -0.18,0.12 -0.4,0.21 -0.66,0.28z"/>
    <path class="fil1" d="M99 10.63l-0.22 1.02c-0.42,-0.08 -0.74,-0.24 -0.97,-0.48 -0.23,-0.24 -0.34,-0.58 -0.35,-1.02 -0.01,-0.5 0.11,-0.87 0.36,-1.1 0.24,-0.22 0.54,-0.34 0.91,-0.35 0.22,-0 0.41,0.04 0.59,0.13 0.18,0.09 0.33,0.23 0.47,0.41 0.05,-0.15 0.1,-0.26 0.16,-0.34 0.1,-0.13 0.23,-0.23 0.4,-0.3 0.17,-0.07 0.37,-0.11 0.6,-0.11 0.29,-0 0.57,0.05 0.84,0.17 0.27,0.12 0.48,0.29 0.62,0.5 0.15,0.22 0.22,0.51 0.22,0.87 0.01,0.35 -0.05,0.63 -0.15,0.83 -0.11,0.21 -0.26,0.38 -0.46,0.51 -0.2,0.13 -0.46,0.24 -0.77,0.31l-0.19 -1.07c0.28,-0.04 0.47,-0.11 0.58,-0.2 0.11,-0.09 0.16,-0.2 0.16,-0.34 -0,-0.15 -0.07,-0.26 -0.21,-0.36 -0.14,-0.09 -0.32,-0.14 -0.55,-0.14 -0.23,0 -0.41,0.05 -0.54,0.14 -0.12,0.09 -0.19,0.22 -0.19,0.38 0,0.09 0.03,0.2 0.09,0.35l-0.99 -0.04c0.01,-0.06 0.01,-0.11 0.01,-0.14 0,-0.14 -0.06,-0.26 -0.18,-0.35 -0.12,-0.09 -0.26,-0.14 -0.42,-0.14 -0.15,0 -0.27,0.04 -0.36,0.11 -0.09,0.07 -0.13,0.17 -0.13,0.29 0,0.12 0.05,0.23 0.15,0.3 0.1,0.08 0.27,0.13 0.52,0.16z"/>
    <path class="fil1" d="M99.15 5.99c-0.27,0 -0.48,0.06 -0.63,0.16 -0.15,0.11 -0.23,0.24 -0.23,0.39 0,0.14 0.07,0.26 0.21,0.35 0.14,0.09 0.35,0.14 0.63,0.14 0.28,-0 0.49,-0.05 0.64,-0.15 0.15,-0.1 0.22,-0.22 0.22,-0.37 0,-0.15 -0.07,-0.28 -0.22,-0.38 -0.15,-0.1 -0.35,-0.15 -0.62,-0.14zm2.25 1.96l-0.18 -1.07c0.19,-0.03 0.33,-0.08 0.41,-0.15 0.08,-0.07 0.12,-0.15 0.12,-0.25 -0,-0.17 -0.12,-0.3 -0.34,-0.4 -0.16,-0.07 -0.52,-0.12 -1.05,-0.15 0.17,0.12 0.3,0.26 0.38,0.39 0.08,0.14 0.12,0.29 0.12,0.47 0,0.35 -0.15,0.64 -0.47,0.88 -0.32,0.24 -0.72,0.36 -1.2,0.37 -0.33,0 -0.63,-0.06 -0.91,-0.17 -0.28,-0.12 -0.48,-0.28 -0.62,-0.49 -0.14,-0.21 -0.21,-0.48 -0.22,-0.8 -0,-0.39 0.08,-0.7 0.25,-0.93 0.17,-0.24 0.44,-0.43 0.81,-0.57 0.37,-0.14 0.86,-0.22 1.48,-0.22 0.9,-0.01 1.57,0.13 1.99,0.42 0.42,0.29 0.64,0.69 0.64,1.21 0,0.31 -0.04,0.55 -0.13,0.73 -0.09,0.18 -0.22,0.33 -0.4,0.45 -0.18,0.12 -0.4,0.21 -0.66,0.28z"/>
   </g>
   <g>
    <path class="fil2" d="M0.12 21.8l-0.08 -11.38 5.83 -0.03c0.88,-0.06 1.64,0.04 2.48,0.27 0.56,0.18 0.99,0.54 1.41,0.99 0.31,0.53 0.49,1.25 0.51,1.84 0.01,0.59 -0.17,1.15 -0.43,1.6 -0.27,0.55 -0.62,0.89 -1.04,1.12 -0.42,0.23 -0.83,0.37 -1.24,0.5 0.29,0.04 0.65,0.19 0.91,0.43 0.18,0.12 0.43,0.36 0.6,0.58 0.16,0.22 0.32,0.44 0.47,0.76l1.65 3.28 -3.98 0 -1.81 -3.5c-0.15,-0.32 -0.39,-0.65 -0.65,-0.88 -0.25,-0.23 -0.54,-0.28 -0.83,-0.32l-0.3 0.05 0 4.61 -3.5 0.07zm3.43 -6.85l1.45 0.02c0.39,-0.04 0.69,-0.09 0.99,-0.15 0.21,-0.07 0.41,-0.13 0.55,-0.41 0.12,-0.18 0.25,-0.36 0.19,-0.66 0.04,-0.29 -0.11,-0.6 -0.36,-0.84 -0.35,-0.25 -0.83,-0.32 -1.32,-0.29l-1.47 0.08 -0.04 2.25z"/>
    <path class="fil2" d="M11.3 17.66c-0.02,-1.18 0.45,-2.38 1.24,-3.15 0.9,-0.85 2.14,-1.35 3.39,-1.27 1.37,-0.09 2.76,0.4 3.77,1.43 0.66,0.78 0.99,1.81 0.93,2.88 0.12,1.19 -0.34,2.3 -1.22,3.05 -0.9,0.85 -2.14,1.35 -3.48,1.25 -1.07,0.04 -2.19,-0.32 -3.15,-1.05 -0.96,-0.73 -1.55,-1.99 -1.48,-3.16zm3.11 -0.03c-0.08,0.57 0.13,1.1 0.44,1.63 0.24,0.33 0.71,0.5 1.1,0.45 0.48,0.07 0.9,-0.16 1.15,-0.52 0.36,-0.44 0.45,-1.11 0.44,-1.7 0.07,-0.48 -0.13,-1.1 -0.45,-1.54 -0.24,-0.33 -0.61,-0.48 -1.08,-0.55 -0.4,0.04 -0.82,0.27 -1.16,0.61 -0.26,0.45 -0.44,1.01 -0.43,1.6z"/>
    <polygon class="fil2" points="22.38,10.27 25.87,10.29 25.88,14.21 29.66,14.18 29.66,10.26 33.16,10.19 33.23,21.66 29.64,21.63 29.64,17.02 25.85,17.05 25.85,21.66 22.36,21.64 "/>
    <path class="fil2" d="M34.86 17.79l3.33 -0.2c0.04,0.4 0.25,0.92 0.5,1.25 0.32,0.44 0.96,0.73 1.54,0.72 0.38,0.06 0.79,-0.08 1.12,-0.33 0.44,-0.33 0.53,-1 0.21,-1.44 -0.08,-0.11 -0.17,-0.12 -0.26,-0.23 -0.54,-0.28 -1.08,-0.55 -1.76,-0.55 -1.12,-0.26 -2.32,-0.73 -3.28,-1.46 -0.61,-0.48 -0.97,-1.32 -0.95,-2.1 -0.01,-0.59 0.18,-1.25 0.44,-1.7 0.37,-0.53 0.93,-1.04 1.54,-1.24 0.93,-0.36 1.82,-0.52 2.79,-0.47 1.18,-0.12 2.31,0.14 3.28,0.78 0.78,0.61 1.32,1.57 1.37,2.55l-3.34 0.29c-0.02,-0.49 -0.16,-0.9 -0.51,-1.15 -0.35,-0.25 -0.72,-0.4 -1.11,-0.36 -0.38,-0.06 -0.69,0.09 -0.91,0.26 -0.22,0.16 -0.36,0.44 -0.38,0.63 0.07,0.21 0.13,0.41 0.31,0.54 0.35,0.25 0.73,0.3 1.21,0.37 1.14,0.17 2.25,0.53 3.25,0.97 0.64,0.29 1.06,0.74 1.46,1.29 0.31,0.53 0.43,1.04 0.44,1.63 -0.02,0.78 -0.21,1.44 -0.59,2.07 -0.39,0.63 -0.94,1.14 -1.66,1.42 -0.82,0.27 -1.82,0.52 -2.69,0.49 -1.94,0.01 -3.24,-0.38 -4,-1.17 -0.77,-0.7 -1.2,-1.75 -1.33,-2.84z"/>
   </g>
   <g>
    <polygon class="fil0" points="0.02,36.34 24.05,36.39 24.05,38.56 0.03,38.51 "/>
    <polygon class="fil0" points="0.07,57.05 24.01,57.1 24.01,59.27 0.07,59.22 "/>
    <polygon class="fil0" points="-0,55.15 0,40.33 2.06,40.34 3.79,46.87 3.87,40.36 5.76,40.38 5.75,55.12 3.86,55.1 2,48.05 2.06,55.15 "/>
    <polygon class="fil0" points="21.8,40.39 20,46.86 19.61,48.28 19.24,46.92 17.42,40.39 15.45,40.38 15.44,55.11 17.42,55.13 17.44,48.02 18.61,51.82 20.58,51.84 21.73,48.02 21.8,55.2 23.77,55.13 23.77,40.4 "/>
    <path class="fil0" d="M10.62 40.08c-1.63,-0.04 -2.98,1.37 -3,3.19l0.01 8.67c-0.03,1.74 1.37,3.18 3.01,3.22 1.63,-0.05 2.97,-1.45 3,-3.19l-0.02 -8.75c0.03,-1.74 -1.37,-3.18 -3,-3.14zm0.97 10.93c0.04,1.56 -0.43,2.11 -0.95,2.07 -0.6,0.05 -0.99,-0.53 -1.02,-2l0.04 -6.93c-0.02,-1.3 0.47,-1.69 0.98,-1.73 0.52,0.05 0.97,0.36 1,1.74l-0.05 6.85z"/>
   </g>
   <path class="fil3" d="M56.94 37.21c-3.08,-0.02 -6.06,1.15 -8.22,3.36l-0.02 -3.45 -5.13 0 -0.03 23.84 5.13 0 0 -3.37c2.2,2.18 5.15,3.45 8.23,3.46l1.97 0.01 -0.02 -1.46 -1.97 -0.01c-4.27,0 -8.09,-2.72 -9.65,-6.74l-0.03 6.66 -2.23 -0.01 -0.02 -20.89 2.31 -0.01 -0.03 6.66c1.52,-4 5.42,-6.65 9.71,-6.57l0.42 -0.04 0.02 2.32 -0.44 -0.04c-4.53,-0 -8.14,3.59 -8.12,8.16 -0.01,4.49 3.61,8.23 8.06,8.26l1.94 -0.07 -0.01 -5.09 -1.89 -0.03c-1.63,-0.02 -3,-1.42 -2.98,-3.07 0.01,-1.64 1.32,-2.99 2.94,-2.97l1.97 0.01 -0.02 -1.46 -1.97 -0c-2.39,0.03 -4.35,2.01 -4.38,4.44 -0.01,2.51 1.97,4.5 4.43,4.44l0.44 0.04 0.02 2.32 -0.44 -0.04c-3.76,0.02 -6.74,-3.05 -6.75,-6.76 0.07,-3.73 3.01,-6.7 6.69,-6.69l1.97 0.01 -0.03 -5.17 -1.89 -0.03z"/>
   <g id="IP65">
    <path class="fil0" d="M83.91 43.51c-0.56,0.04 -1.25,0.23 -1.71,0.52l-0.25 0.1 0.01 -0.2 -0.02 -0.28 -1.44 0.02 -1.43 0.02 0.09 7.35 -0.02 7.3 1.43 -0.02 1.44 -0.02 0.06 -2.84 -0.06 -2.89 0.27 0.18c0.62,0.32 1.21,0.37 1.92,0.46 1.24,-0.03 2.38,-0.51 3.2,-1.34 0.89,-0.86 1.28,-1.99 1.37,-3.39 0.05,-2.64 -1.46,-4.64 -3.71,-4.96 -0.31,-0.06 -0.91,-0.1 -1.15,-0zm0.65 2.25c0.67,0.21 1.22,0.85 1.45,1.63 0.1,0.25 0.09,1.13 0.06,1.53 -0.2,1.35 -0.97,2.06 -2.12,2.05 -0.4,-0.03 -0.71,-0.09 -0.98,-0.27 -0.31,-0.06 -0.72,-0.58 -0.86,-0.91l-0.15 -0.13 0.04 -1.28 -0.04 -1.25 0.18 -0.27c0.46,-0.97 1.44,-1.38 2.42,-1.11z"/>
    <path class="fil0" d="M93.12 43.45c-1.93,0.22 -2.56,0.78 -2.81,2.24 -0.07,0.52 -0.02,9.14 0.06,9.79 0.26,1.54 0.73,2.22 1.91,2.5 0.67,0.21 1.06,0.23 2.14,0.27 1.15,0 1.52,-0.05 2.12,-0.21 1.22,-0.31 1.73,-0.92 1.95,-2.47 0.07,-0.52 0.07,-3.04 0.02,-4.09 -0.09,-1.13 -0.15,-1.49 -0.48,-1.84 -0.52,-0.56 -1.1,-0.8 -2.06,-0.79 -0.88,-0.02 -1.37,0.18 -1.95,0.62 -0.24,0.1 -0.41,0.17 -0.41,0.17 -0.08,0.03 -0.05,-2.89 0.01,-3.21 0.07,-0.52 0.2,-0.67 0.76,-0.71 0.48,-0.01 0.63,0.13 0.77,0.46 0,0 0.06,0.36 0.08,0.65l0.01 0.48 1.47 0.07 1.52 -0.05 -0.05 -1.05c0,-0.68 -0.05,-1.04 -0.12,-1.21 -0.18,-0.9 -0.87,-1.39 -2.09,-1.55 -0.51,-0.08 -2.34,-0.09 -2.83,-0.08zm1.82 7.79c0.03,0.08 0.15,0.13 0.19,0.21 0.07,0.17 0.1,0.25 0.07,2.01 0.02,1.65 0.08,1.81 -0.01,2.05 -0.1,0.23 -0.26,0.3 -0.62,0.36 -0.39,-0.03 -0.59,-0.04 -0.74,-0.17 -0.19,-0.22 -0.18,-0.41 -0.26,-2.23 0.02,-1.56 0.07,-1.68 0.08,-1.88 0.09,-0.24 0.17,-0.27 0.42,-0.37 0.16,-0.07 0.68,0.01 0.87,0.02z"/>
    <path class="fil0" d="M99.17 43.64c0,0 0.05,1.73 0.07,3.86l-0.01 3.89 1.44 -0.02 1.35 0.02 0.06 -0.32c0,-0.68 0.13,-0.83 0.81,-0.83 0.48,-0 0.71,0.09 0.78,0.26l0.07 0.17 0.01 2.32 0.05 2.41 -0.05 0.12c-0.18,0.27 -0.26,0.3 -0.74,0.31 -0.6,-0.04 -0.71,-0.09 -0.79,-0.74 -0.03,-0.08 -0.04,-0.57 -0.07,-0.85l0 -0.68 -1.52 0.05 -1.52 0.05 -0.01 0.88c0.05,1.05 0.1,1.61 0.3,2.11 0.16,0.62 0.5,0.96 1,1.23 0.7,0.29 1.3,0.33 2.73,0.32 1.19,0.08 1.63,-0.01 2.24,-0.16 1.02,-0.33 1.45,-0.9 1.66,-2.25 0.11,-0.43 0.05,-4.49 -0.02,-5.34 -0.05,-0.57 -0.17,-1.1 -0.31,-1.43 -0.26,-0.86 -0.96,-1.15 -2.32,-1.17 -0.48,0 -0.68,-0.01 -0.92,0.09 -0.33,0.13 -0.73,0.31 -1.03,0.53l-0.29 0.22 0.04 -1.28 -0.08 -1.33 2.23 0.04 2.11 -0.01 -0.04 -1.25 0.04 -1.28 -3.63 0.06c-2.03,-0.03 -3.66,-0.02 -3.66,-0.02z"/>
    <polygon class="fil0" points="75.79,50.99 75.88,58.34 77.31,58.32 78.75,58.31 78.69,51.04 78.6,43.69 77.17,43.71 75.73,43.73 "/>
   </g>
   <g>
    <path class="fil0" d="M135.62 39.99c0.35,0.05 0.76,0.17 1.03,0.39 0.22,0.15 0.64,0.57 0.8,0.78 0.1,0.14 1.3,1.99 2.63,4.17 2.67,4.35 3.66,5.94 5.25,8.45 0.68,1.18 1.07,1.84 1.11,2.03 0.22,0.57 0.26,1.18 0.12,1.82 -0.36,0.91 -0.99,1.6 -1.93,1.89l-0.37 0.07 -8.9 0.05 -8.95 -0.02 -0.29 -0.1c-0.93,-0.25 -1.67,-0.96 -1.97,-1.91 -0.22,-0.57 -0.15,-1.16 0,-1.8 0.08,-0.17 0.78,-1.33 2.4,-4.05 1.24,-2.11 2.8,-4.77 3.49,-5.94 0.69,-1.16 1.62,-2.72 2.07,-3.37 0.79,-1.45 1.08,-1.77 1.53,-2.01 0.6,-0.45 1.27,-0.54 1.98,-0.44zm-1.02 -0.93c-0.86,0.12 -1.76,0.59 -2.28,1.3 -0.28,0.32 -8.77,14.51 -8.95,14.96 -0.59,1.3 -0.27,2.97 0.73,4.02 0.53,0.56 1.13,0.94 1.89,1.11l0.29 0.1 9.08 -0.09 9.06 0.03 0.37 -0.07c2.18,-0.59 3.35,-3.07 2.49,-5.18 -0.1,-0.13 -1.72,-2.83 -3.6,-5.87 -1.93,-3.11 -3.96,-6.34 -4.51,-7.2 -0.48,-0.91 -1.04,-1.65 -1.2,-1.85 -0.77,-1.01 -2.08,-1.5 -3.37,-1.27z"/>
    <path class="fil0" d="M136.79 55.14c0.77,1.01 1.36,1.94 1.36,1.94 0.05,0.07 -0.65,0.39 -1.09,0.51 -0.64,0.27 -0.94,0.29 -1.71,0.24 -0.79,0.07 -1.14,0.02 -1.72,-0.19 -0.46,-0.18 -1.13,-0.52 -1.18,-0.59 0.07,-0.05 2.51,-3.49 2.74,-3.88 0.08,-0.17 0.08,-0.17 0.19,-0.03 0,0 0.66,0.88 1.42,2.01zm-1.16 -6.66c0.47,0.07 1.25,0.54 1.23,0.66 -0.07,0.05 -1.56,2.24 -1.61,2.18 -0.07,0.05 -0.46,-0.61 -1.02,-1.35l-0.96 -1.4 0.18 -0.03c0.44,-0.12 0.69,-0.2 1.28,-0.12 0.42,0 0.72,-0.02 0.89,0.07zm3.55 -0.03c0.8,0.78 1.28,1.69 1.56,2.75 0.06,0.49 0.07,1.75 0,2.23 -0.16,0.76 -0.5,1.55 -0.89,2.16 -0.28,0.32 -0.85,0.96 -0.9,0.89 -0.07,0.05 -3.1,-4.23 -3.04,-4.28 -0.05,-0.07 1.51,-2.31 1.58,-2.36 0.07,-0.05 0.13,-0.1 0.17,0.09 0.31,0.41 0.53,0.98 0.67,1.72 0.05,0.07 0.03,0.19 0.1,0.13l1.41 -0.22c0,0 -0.04,-0.19 -0.07,-0.37 -0.12,-0.44 -0.35,-1.01 -0.6,-1.35 -0.14,-0.32 -0.66,-0.88 -0.77,-1.01 -0.12,-0.02 -0.12,-0.02 -0.17,-0.08 0.07,-0.05 0.52,-0.71 0.52,-0.71 0,0 0.27,0.22 0.42,0.42zm-7.2 -0.07l0.26 0.34 -0.28 0.32c-0.55,0.52 -0.88,1.2 -1.04,1.96 -0.11,0.4 -0.06,0.47 0.04,0.19 0.18,-0.46 0.36,-0.91 0.65,-1.23 0.15,-0.22 0.65,-0.81 0.83,-0.84 0,0 0.2,0.27 1.12,1.48 0.61,0.81 1.06,1.53 1.11,1.6 0.05,0.07 -0.25,0.51 -1.43,2.14 -0.88,1.2 -1.49,2.19 -1.55,2.12 -0.07,0.05 -0.59,-0.51 -0.9,-0.91 -0.46,-0.61 -0.77,-1.43 -0.96,-2.24 -0.07,-0.37 -0.08,-1.63 0.03,-2.04 0.09,-0.71 0.37,-1.45 0.76,-2.06 0.21,-0.27 1,-1.18 1.11,-1.16 0,0 0.1,0.13 0.26,0.34zm3.63 -1.58c0.54,0.02 1.06,0.15 1.52,0.34 0.41,0.12 0.8,0.35 0.85,0.42 0,0 -0.3,0.44 -0.45,0.66 0,0 -0.17,-0.08 -0.34,-0.17 -0.68,-0.34 -1.27,-0.42 -2.04,-0.47 -0.66,-0.03 -1.34,0.17 -1.98,0.44 -0.13,0.1 -0.2,0.15 -0.2,0.15 0,0 -0.1,-0.13 -0.2,-0.27 -0.15,-0.2 -0.26,-0.34 -0.26,-0.34 -0.05,-0.07 0.13,-0.1 0.27,-0.2 0.77,-0.37 1.27,-0.54 2.37,-0.62 0,0 0.23,0.03 0.47,0.07zm-1.02 -0.93c-0.79,0.07 -1.55,0.32 -2.25,0.64l-0.45 0.24 -0.26 -0.34c-0.24,-0.45 -0.35,-0.47 -0.59,-0.51 -0.12,-0.01 -0.18,0.03 -0.27,0.2 -0.13,0.1 -0.13,0.1 -0.1,0.29 -0.02,0.12 -0.03,0.24 0.17,0.51 0.15,0.2 0.26,0.34 0.31,0.4 0,0 -0.13,0.1 -0.2,0.15 -0.13,0.1 -0.35,0.37 -0.55,0.52 -2.26,2.56 -2.18,6.43 0.32,8.89 0.42,0.42 0.42,0.42 0.41,0.54 -0.28,0.32 -0.36,0.49 -0.33,0.68 -0.09,0.17 -0.03,0.24 0.09,0.25 0.1,0.14 0.15,0.2 0.27,0.22 0.25,-0.08 0.32,-0.13 0.54,-0.41 0.08,-0.17 0.22,-0.27 0.22,-0.27 0,0 0.12,0.02 0.29,0.1 0.44,0.3 1.18,0.59 1.89,0.69 0.41,0.12 0.52,0.14 1.25,0.12 0.66,0.03 0.91,-0.05 1.21,-0.07 0.62,-0.15 1.31,-0.35 1.83,-0.64 0.2,-0.15 0.34,-0.25 0.34,-0.25 0.05,0.07 0.1,0.14 0.2,0.27 0.26,0.34 0.31,0.4 0.61,0.39 0.23,0.03 0.45,-0.24 0.38,-0.61 0,0 -0.1,-0.13 -0.21,-0.27l-0.2 -0.27 0.48 -0.47c1.88,-1.96 2.27,-4.91 1.11,-7.42 -0.39,-0.66 -1.06,-1.53 -1.6,-1.97 -0.05,-0.07 -0.15,-0.2 -0.15,-0.2 0,0 0.08,-0.17 0.23,-0.39 0.22,-0.27 0.23,-0.39 0.25,-0.51 0.01,-0.12 -0.04,-0.18 -0.14,-0.32 -0.1,-0.14 -0.22,-0.15 -0.34,-0.17 -0.18,0.03 -0.32,0.14 -0.55,0.52l-0.28 0.32 -0.39 -0.23c-1.13,-0.52 -2.36,-0.76 -3.52,-0.62z"/>
   </g>
  </g>
 </g>
</svg>
