<?xml version="1.0" encoding="UTF-8"?>
<!DOCTYPE svg PUBLIC "-//W3C//DTD SVG 1.1//EN" "http://www.w3.org/Graphics/SVG/1.1/DTD/svg11.dtd">
<!-- Creator: CorelDRAW 2021 (64-Bit Not for commercial use) -->
<svg xmlns="http://www.w3.org/2000/svg" xml:space="preserve" width="1.0478in" height="0.408394in" version="1.1" style="shape-rendering:geometricPrecision; text-rendering:geometricPrecision; image-rendering:optimizeQuality; fill-rule:evenodd; clip-rule:evenodd"
viewBox="0 0 422.07 164.51"
 xmlns:xlink="http://www.w3.org/1999/xlink"
 xmlns:xodm="http://www.corel.com/coreldraw/odm/2003">
 <defs>
  <style type="text/css">
   <![CDATA[
    .fil0 {fill:black;fill-rule:nonzero}
    .fil2 {fill:#231F20;fill-rule:nonzero}
    .fil1 {fill:white;fill-rule:nonzero}
   ]]>
  </style>
 </defs>
 <g id="_0">
  <metadata id="CorelCorpID_0Corel-Layer"/>
  <g id="Certifications">
   <g>
    <path class="fil0" d="M240.07 86.51l-50.7 0.5c-1.53,0.01 -2.79,-1.22 -2.8,-2.75l-0.7 -71.15c-0.01,-1.52 1.22,-2.79 2.75,-2.8l50.7 -0.5c1.53,-0.02 2.79,1.22 2.8,2.75l0.7 71.14c0.01,1.52 -1.22,2.79 -2.75,2.8z"/>
    <path class="fil0" d="M283.6 86.26l-33.81 0.33c-1.53,0.02 -2.78,-1.22 -2.8,-2.75l-0.7 -71.32c-0.02,-1.53 1.22,-2.78 2.75,-2.8l33.81 -0.33c1.53,-0.02 2.78,1.22 2.81,2.75l0.69 71.32c0.01,1.52 -1.22,2.79 -2.75,2.8z"/>
    <path class="fil0" d="M225.03 48.31c0.2,21.18 -17,38.52 -38.43,38.73 -21.43,0.21 -38.97,-16.79 -39.19,-37.97 -0.21,-21.17 17,-38.52 38.43,-38.72 21.44,-0.21 38.99,16.79 39.19,37.96z"/>
    <path class="fil1" d="M219.76 47.51c0.18,18.53 -14.69,33.69 -33.22,33.88 -18.53,0.19 -33.69,-14.69 -33.88,-33.22 -0.19,-18.53 14.69,-33.69 33.22,-33.88 18.53,-0.18 33.69,14.69 33.88,33.22z"/>
    <path class="fil0" d="M166.97 28.87c-0.05,0.21 -0.03,5.68 0.07,12.14l0.17 11.75 0.44 1.17c1.38,3.63 4.57,5.53 9.2,5.48 2.19,-0.01 3.48,-0.28 5.11,-1.08 1.52,-0.74 2.89,-2.03 3.56,-3.39 0.9,-1.84 0.94,-2.24 0.8,-14.95l-0.11 -11.71 -3.6 0.07 -3.62 0.09 0.08 11.79c0.07,12.63 0.1,12.29 -0.79,13.1 -0.5,0.45 -1.89,0.59 -2.59,0.23 -0.32,-0.15 -0.72,-0.58 -0.92,-0.96 -0.34,-0.65 -0.36,-1 -0.47,-12.45l-0.11 -11.76 -3.57 0.04c-3.55,0.03 -3.57,0.03 -3.65,0.43z"/>
    <path class="fil0" d="M191.14 40.16c-0.07,0.24 -0.04,7.17 0.05,15.42l0.16 14.97 7.83 -0.08 7.82 -0.07 -0.03 -3.37 -0.04 -3.34 -4.15 0.04 -4.12 0.04 -0.2 -12.02 -0.21 -12.01 -3.5 -0 -3.51 -0.02 -0.11 0.44z"/>
    <path class="fil1" d="M255.74 26.72c0,0.53 -0.42,0.97 -0.96,0.98 -0.54,0 -0.98,-0.43 -0.98,-0.96 0,-0.53 0.43,-0.97 0.97,-0.97 0.53,-0 0.97,0.42 0.98,0.96z"/>
    <path class="fil1" d="M231.44 75.25l0.68 -2.34c0.65,0.15 1.21,0.39 1.65,0.73 0.43,0.33 0.77,0.75 0.99,1.24 0.23,0.5 0.35,1.13 0.36,1.9 0.01,0.93 -0.12,1.7 -0.39,2.29 -0.27,0.6 -0.73,1.11 -1.42,1.55 -0.68,0.44 -1.55,0.65 -2.62,0.67 -1.42,0.02 -2.52,-0.35 -3.29,-1.1 -0.77,-0.75 -1.16,-1.81 -1.17,-3.2 -0.01,-1.08 0.2,-1.93 0.63,-2.56 0.43,-0.62 1.1,-1.09 2,-1.39l0.54 2.34c-0.26,0.08 -0.45,0.17 -0.57,0.26 -0.21,0.15 -0.36,0.33 -0.46,0.55 -0.11,0.21 -0.16,0.45 -0.16,0.72 0.01,0.6 0.25,1.06 0.74,1.38 0.36,0.23 0.93,0.35 1.69,0.34 0.95,-0.01 1.6,-0.16 1.95,-0.45 0.35,-0.29 0.52,-0.69 0.52,-1.22 -0.01,-0.51 -0.15,-0.89 -0.43,-1.14 -0.29,-0.26 -0.7,-0.45 -1.25,-0.56z"/>
    <polygon class="fil1" points="226.33,71.99 226.26,64.87 228.09,64.85 228.13,69.31 229.5,69.29 229.47,65.17 231.21,65.14 231.25,69.28 232.95,69.26 232.91,64.68 234.85,64.66 234.92,71.9 "/>
    <path class="fil1" d="M229.7 60.88l-0.01 -1.12c0,-0.12 -0.04,-0.36 -0.12,-0.7 -0.03,-0.17 -0.13,-0.32 -0.27,-0.43 -0.15,-0.12 -0.31,-0.17 -0.5,-0.17 -0.28,0 -0.5,0.1 -0.64,0.27 -0.15,0.18 -0.22,0.5 -0.22,0.99l0.01 1.17 1.75 -0.02zm5.14 2.62l-8.59 0.09 -0.04 -4.43c-0.01,-0.82 0.06,-1.44 0.19,-1.88 0.14,-0.44 0.39,-0.79 0.78,-1.06 0.38,-0.27 0.84,-0.4 1.38,-0.41 0.48,-0 0.89,0.1 1.24,0.29 0.35,0.2 0.62,0.48 0.85,0.83 0.13,0.22 0.25,0.53 0.34,0.93 0.1,-0.32 0.21,-0.55 0.31,-0.69 0.07,-0.1 0.23,-0.24 0.46,-0.43 0.23,-0.19 0.4,-0.31 0.52,-0.38l2.47 -1.3 0.03 3 -2.61 1.44c-0.34,0.18 -0.56,0.35 -0.66,0.49 -0.13,0.2 -0.2,0.41 -0.2,0.65l0 0.23 3.48 -0.03 0.03 2.67z"/>
    <polygon class="fil1" points="226.16,55.29 226.08,47.22 228.2,47.2 228.23,49.9 234.71,49.84 234.73,52.5 228.26,52.56 228.28,55.27 "/>
    <polygon class="fil1" points="226.08,46.21 226.05,43.55 234.64,43.47 234.67,46.14 "/>
    <polygon class="fil1" points="226.03,41.94 225.98,35.37 227.82,35.35 227.85,39.26 229.35,39.24 229.33,35.91 231.05,35.89 231.09,39.22 234.6,39.18 234.62,41.86 "/>
    <polygon class="fil1" points="225.96,34.14 225.94,31.48 234.52,31.4 234.55,34.06 "/>
    <polygon class="fil1" points="225.91,29.88 225.85,22.77 227.68,22.75 227.72,27.21 229.09,27.19 229.05,23.06 230.8,23.04 230.84,27.17 232.53,27.15 232.49,22.58 234.43,22.56 234.51,29.8 "/>
    <path class="fil1" d="M227.75 18.8l4.69 -0.04 0 -0.65c-0.01,-0.56 -0.07,-0.95 -0.2,-1.18 -0.13,-0.23 -0.35,-0.41 -0.66,-0.55 -0.3,-0.13 -0.8,-0.19 -1.49,-0.18 -0.91,0.01 -1.54,0.16 -1.87,0.46 -0.34,0.3 -0.5,0.79 -0.49,1.48l0 0.66zm-1.92 2.67l-0.05 -3.94c-0,-0.78 0.1,-1.4 0.3,-1.88 0.2,-0.48 0.51,-0.88 0.89,-1.19 0.39,-0.32 0.85,-0.55 1.37,-0.7 0.52,-0.15 1.07,-0.22 1.67,-0.23 0.91,-0.01 1.63,0.08 2.13,0.29 0.51,0.2 0.94,0.49 1.28,0.86 0.35,0.36 0.57,0.75 0.69,1.19 0.16,0.58 0.24,1.11 0.25,1.58l0.04 3.94 -8.58 0.08z"/>
    <path class="fil1" d="M214.68 13.65c-2.3,0.03 -4.15,1.83 -4.12,4.03 0.02,2.2 1.91,3.97 4.2,3.94 2.29,-0.02 4.15,-1.83 4.13,-4.03 -0.02,-2.19 -1.91,-3.97 -4.2,-3.94zm0.09 9.13c-2.94,0.03 -5.35,-2.26 -5.37,-5.09 -0.03,-2.83 2.33,-5.16 5.27,-5.2 2.94,-0.03 5.35,2.26 5.37,5.09 0.03,2.84 -2.33,5.17 -5.27,5.2z"/>
    <path class="fil1" d="M213.91 17l0.78 -0c0.09,-0 0.24,-0.03 0.49,-0.09 0.12,-0.03 0.22,-0.09 0.29,-0.19 0.08,-0.1 0.12,-0.21 0.11,-0.34 0,-0.19 -0.06,-0.34 -0.19,-0.44 -0.12,-0.1 -0.35,-0.15 -0.68,-0.15l-0.81 0.01 0.01 1.21zm-1.81 3.57l-0.06 -5.97 3.07 -0.02c0.58,-0.01 1.01,0.04 1.31,0.13 0.29,0.1 0.54,0.27 0.73,0.54 0.19,0.26 0.28,0.58 0.29,0.96 0,0.33 -0.07,0.62 -0.2,0.86 -0.14,0.24 -0.33,0.43 -0.58,0.59 -0.16,0.1 -0.37,0.18 -0.65,0.24 0.22,0.07 0.38,0.15 0.48,0.21 0.07,0.06 0.17,0.16 0.3,0.32 0.12,0.16 0.21,0.28 0.25,0.36l0.92 1.72 -2.08 0.02 -1.01 -1.81c-0.12,-0.23 -0.24,-0.39 -0.33,-0.46 -0.14,-0.09 -0.29,-0.13 -0.46,-0.13l-0.16 0 0.03 2.42 -1.85 0.02z"/>
    <path class="fil1" d="M256.62 82.83l-0.16 -1.91c0.36,-0.05 0.63,-0.13 0.82,-0.26 0.29,-0.22 0.44,-0.51 0.45,-0.9 -0.01,-0.29 -0.09,-0.51 -0.24,-0.67 -0.15,-0.15 -0.34,-0.22 -0.54,-0.23 -0.2,0.01 -0.37,0.08 -0.52,0.23 -0.15,0.15 -0.29,0.5 -0.43,1.03 -0.22,0.88 -0.51,1.52 -0.89,1.9 -0.38,0.38 -0.86,0.57 -1.44,0.58 -0.39,0.01 -0.75,-0.09 -1.1,-0.28 -0.34,-0.19 -0.61,-0.48 -0.81,-0.87 -0.2,-0.38 -0.31,-0.92 -0.32,-1.59 -0,-0.83 0.17,-1.47 0.52,-1.91 0.35,-0.44 0.91,-0.7 1.7,-0.79l0.14 1.9c-0.34,0.05 -0.59,0.16 -0.73,0.33 -0.15,0.16 -0.23,0.38 -0.22,0.67 0,0.23 0.05,0.41 0.17,0.53 0.12,0.11 0.26,0.17 0.41,0.17 0.12,0 0.23,-0.05 0.32,-0.15 0.1,-0.09 0.19,-0.32 0.27,-0.68 0.21,-0.88 0.42,-1.51 0.64,-1.89 0.22,-0.38 0.49,-0.67 0.82,-0.84 0.33,-0.17 0.7,-0.27 1.11,-0.27 0.48,-0.01 0.92,0.11 1.34,0.33 0.4,0.23 0.71,0.55 0.93,0.96 0.21,0.41 0.32,0.93 0.33,1.56 0,1.11 -0.23,1.88 -0.72,2.32 -0.49,0.43 -1.11,0.68 -1.86,0.74z"/>
    <path class="fil1" d="M256.14 72.56l-2.68 0.75 2.69 0.69 -0.01 -1.43zm1.61 -0.44l0.02 2.28 1.24 0.31 0.02 2.05 -7.51 -2.38 -0.02 -2.19 7.46 -2.52 0.02 2.1 -1.24 0.33z"/>
    <polygon class="fil1" points="251.48,69.34 251.43,64.36 253.04,64.35 253.06,67.3 254.37,67.29 254.35,64.77 255.86,64.75 255.88,67.28 258.95,67.24 258.97,69.27 "/>
    <polygon class="fil1" points="251.42,63.51 251.37,58.12 252.97,58.11 252.99,61.48 254.19,61.47 254.16,58.34 255.68,58.33 255.72,61.45 257.19,61.44 257.16,57.97 258.85,57.96 258.91,63.44 "/>
    <polygon class="fil1" points="251.36,57.63 251.3,51.51 253.15,51.5 253.17,53.55 258.81,53.49 258.83,55.5 253.19,55.56 253.21,57.61 "/>
    <polygon class="fil1" points="251.3,51.49 251.28,49.25 253.79,47.91 251.26,46.63 251.23,44.4 255.61,46.89 258.74,46.86 258.76,48.88 255.63,48.91 "/>
    <path class="fil1" d="M251.16 36.95l-0.02 -2.01 4.46 -0.04c0.44,-0 0.86,0.05 1.26,0.17 0.39,0.11 0.73,0.3 1.03,0.55 0.3,0.25 0.51,0.52 0.63,0.8 0.17,0.39 0.26,0.85 0.26,1.4 0.01,0.32 -0.02,0.67 -0.07,1.04 -0.05,0.38 -0.15,0.69 -0.29,0.95 -0.15,0.26 -0.36,0.49 -0.64,0.7 -0.29,0.21 -0.57,0.36 -0.86,0.44 -0.47,0.12 -0.89,0.19 -1.26,0.19l-4.47 0.04 -0.02 -2.01 4.56 -0.04c0.41,-0.01 0.73,-0.1 0.96,-0.3 0.23,-0.21 0.34,-0.48 0.34,-0.83 -0,-0.35 -0.12,-0.62 -0.34,-0.81 -0.23,-0.2 -0.55,-0.29 -0.97,-0.29l-4.57 0.05z"/>
    <path class="fil1" d="M256.14 34.14l-0.16 -1.91c0.36,-0.04 0.63,-0.13 0.82,-0.25 0.3,-0.22 0.45,-0.51 0.45,-0.9 -0.01,-0.29 -0.09,-0.51 -0.24,-0.66 -0.15,-0.15 -0.34,-0.22 -0.54,-0.23 -0.2,0.01 -0.37,0.08 -0.52,0.23 -0.15,0.15 -0.29,0.49 -0.43,1.03 -0.22,0.88 -0.51,1.52 -0.89,1.9 -0.38,0.38 -0.85,0.57 -1.44,0.58 -0.39,0.01 -0.75,-0.09 -1.1,-0.28 -0.34,-0.19 -0.61,-0.47 -0.81,-0.86 -0.2,-0.38 -0.31,-0.92 -0.32,-1.6 -0,-0.83 0.17,-1.46 0.52,-1.91 0.35,-0.44 0.91,-0.7 1.7,-0.79l0.15 1.9c-0.34,0.05 -0.59,0.16 -0.73,0.33 -0.16,0.16 -0.23,0.38 -0.22,0.67 0,0.23 0.05,0.41 0.17,0.53 0.11,0.11 0.26,0.17 0.42,0.17 0.12,0 0.23,-0.05 0.33,-0.15 0.1,-0.09 0.19,-0.31 0.27,-0.68 0.21,-0.88 0.42,-1.5 0.64,-1.89 0.22,-0.39 0.5,-0.67 0.82,-0.84 0.33,-0.18 0.7,-0.27 1.11,-0.27 0.48,-0.01 0.92,0.11 1.34,0.33 0.4,0.23 0.71,0.55 0.93,0.96 0.21,0.41 0.32,0.94 0.33,1.56 0.01,1.11 -0.22,1.88 -0.72,2.31 -0.49,0.43 -1.11,0.68 -1.86,0.74z"/>
    <path class="fil1" d="M255.42 20.32l0.6 -1.77c0.56,0.12 1.05,0.29 1.43,0.55 0.39,0.25 0.68,0.56 0.87,0.94 0.2,0.37 0.3,0.85 0.3,1.43 0,0.71 -0.11,1.29 -0.34,1.74 -0.23,0.45 -0.65,0.84 -1.24,1.18 -0.6,0.33 -1.35,0.5 -2.28,0.51 -1.24,0.01 -2.2,-0.26 -2.87,-0.84 -0.67,-0.57 -1.01,-1.37 -1.02,-2.42 -0.01,-0.82 0.18,-1.46 0.55,-1.93 0.38,-0.47 0.96,-0.83 1.75,-1.07l0.47 1.77c-0.23,0.06 -0.39,0.14 -0.5,0.2 -0.17,0.11 -0.31,0.25 -0.4,0.42 -0.09,0.16 -0.14,0.34 -0.14,0.55 0,0.45 0.22,0.8 0.64,1.04 0.32,0.18 0.81,0.27 1.47,0.26 0.83,-0.01 1.4,-0.12 1.71,-0.35 0.31,-0.22 0.45,-0.53 0.45,-0.93 0,-0.38 -0.13,-0.68 -0.38,-0.87 -0.25,-0.2 -0.61,-0.33 -1.08,-0.42z"/>
    <path class="fil1" d="M255.57 14.22l-2.68 0.74 2.69 0.69 -0.01 -1.43zm1.61 -0.44l0.02 2.28 1.23 0.31 0.02 2.05 -7.51 -2.38 -0.02 -2.19 7.46 -2.51 0.02 2.1 -1.24 0.34z"/>
    <polygon class="fil1" points="266.8,81.34 266.72,72.59 269.63,72.56 269.69,78.04 271.85,78.02 271.81,72.94 274.59,72.92 274.64,78 277.33,77.96 277.28,72.33 280.36,72.31 280.46,81.2 "/>
    <path class="fil1" d="M274.81 65.88l-4.3 0.04 4.33 2.78 -0.03 -2.82zm2.94 -0.03l0.05 5.35 -3.12 0.03 -8.26 -5.27 -0.03 -2.56 8.39 -0.08 -0.01 -1.33 2.95 -0.02 0.01 1.32 2.55 -0.02 0.03 2.55 -2.55 0.03z"/>
    <path class="fil1" d="M276.08 58c0.6,-0.01 1.09,-0.15 1.47,-0.44 0.38,-0.29 0.57,-0.62 0.57,-0.98 -0,-0.35 -0.2,-0.67 -0.6,-0.94 -0.39,-0.28 -0.88,-0.41 -1.47,-0.4 -0.6,0.01 -1.1,0.15 -1.48,0.44 -0.39,0.29 -0.58,0.61 -0.57,0.98 0,0.37 0.2,0.68 0.56,0.95 0.38,0.26 0.89,0.4 1.51,0.39zm-5.87 -0.1c0.47,-0 0.85,-0.13 1.14,-0.36 0.28,-0.23 0.43,-0.54 0.42,-0.92 -0,-0.33 -0.14,-0.61 -0.44,-0.82 -0.29,-0.21 -0.65,-0.32 -1.11,-0.32 -0.47,0 -0.86,0.12 -1.15,0.35 -0.29,0.23 -0.44,0.52 -0.44,0.87 0,0.35 0.15,0.64 0.44,0.86 0.29,0.22 0.66,0.33 1.13,0.33zm2.69 1.28c-0.31,0.47 -0.66,0.81 -1.05,1.02 -0.53,0.29 -1.15,0.44 -1.84,0.45 -1.14,0.01 -2.08,-0.39 -2.81,-1.22 -0.57,-0.64 -0.86,-1.5 -0.86,-2.56 -0.02,-1.41 0.32,-2.46 1.01,-3.14 0.69,-0.69 1.57,-1.03 2.62,-1.04 0.61,-0 1.19,0.12 1.72,0.39 0.4,0.19 0.79,0.51 1.17,0.94 0.35,-0.57 0.81,-1 1.39,-1.3 0.58,-0.28 1.23,-0.43 1.93,-0.43 0.69,-0.01 1.32,0.1 1.92,0.34 0.59,0.24 1.06,0.53 1.38,0.88 0.33,0.35 0.57,0.78 0.72,1.31 0.16,0.52 0.25,1.08 0.25,1.68 0.01,1.12 -0.15,1.97 -0.48,2.57 -0.34,0.59 -0.84,1.05 -1.5,1.36 -0.66,0.32 -1.4,0.47 -2.22,0.49 -0.8,0 -1.49,-0.13 -2.04,-0.42 -0.56,-0.28 -0.99,-0.72 -1.31,-1.32z"/>
    <path class="fil1" d="M270.95 45.45c-0.74,0.01 -1.31,0.16 -1.73,0.45 -0.42,0.29 -0.62,0.65 -0.62,1.06 0.01,0.39 0.2,0.71 0.58,0.96 0.38,0.26 0.95,0.38 1.71,0.37 0.76,-0.01 1.34,-0.15 1.74,-0.41 0.4,-0.28 0.6,-0.61 0.59,-1.01 0,-0.41 -0.2,-0.76 -0.59,-1.03 -0.39,-0.26 -0.95,-0.39 -1.68,-0.39zm6.14 5.34l-0.5 -2.91c0.53,-0.08 0.9,-0.22 1.11,-0.4 0.22,-0.18 0.33,-0.41 0.32,-0.68 -0,-0.46 -0.32,-0.83 -0.93,-1.09 -0.45,-0.19 -1.41,-0.33 -2.88,-0.4 0.47,0.34 0.82,0.7 1.04,1.06 0.22,0.37 0.33,0.8 0.33,1.28 0.01,0.95 -0.42,1.75 -1.28,2.41 -0.86,0.66 -1.96,1 -3.29,1.01 -0.91,0.01 -1.73,-0.15 -2.48,-0.48 -0.76,-0.32 -1.32,-0.77 -1.7,-1.35 -0.38,-0.58 -0.58,-1.3 -0.59,-2.18 -0.01,-1.06 0.22,-1.91 0.68,-2.55 0.46,-0.65 1.21,-1.17 2.22,-1.56 1.02,-0.39 2.36,-0.59 4.04,-0.61 2.46,-0.03 4.27,0.36 5.43,1.15 1.15,0.78 1.74,1.9 1.75,3.31 0.01,0.84 -0.11,1.51 -0.36,2 -0.24,0.49 -0.61,0.89 -1.09,1.22 -0.48,0.32 -1.09,0.58 -1.81,0.76z"/>
    <path class="fil1" d="M270.85 35.46c-0.74,0.01 -1.31,0.16 -1.73,0.45 -0.42,0.29 -0.63,0.64 -0.62,1.06 0.01,0.39 0.2,0.71 0.58,0.96 0.38,0.26 0.95,0.37 1.71,0.37 0.76,-0.01 1.35,-0.14 1.74,-0.41 0.4,-0.28 0.6,-0.61 0.59,-1.01 0,-0.41 -0.2,-0.76 -0.59,-1.03 -0.4,-0.26 -0.95,-0.4 -1.68,-0.39zm6.14 5.34l-0.5 -2.91c0.53,-0.08 0.89,-0.22 1.11,-0.4 0.22,-0.19 0.33,-0.41 0.32,-0.68 -0,-0.46 -0.32,-0.83 -0.94,-1.09 -0.45,-0.19 -1.41,-0.32 -2.87,-0.41 0.47,0.35 0.81,0.71 1.03,1.07 0.22,0.37 0.33,0.8 0.34,1.28 0.01,0.94 -0.42,1.75 -1.28,2.41 -0.86,0.66 -1.96,0.99 -3.29,1.01 -0.91,0.01 -1.73,-0.15 -2.48,-0.47 -0.75,-0.32 -1.31,-0.78 -1.7,-1.35 -0.39,-0.57 -0.59,-1.31 -0.6,-2.18 -0,-1.06 0.22,-1.91 0.68,-2.55 0.46,-0.65 1.2,-1.17 2.22,-1.56 1.02,-0.39 2.36,-0.59 4.04,-0.61 2.46,-0.03 4.28,0.36 5.43,1.15 1.15,0.79 1.74,1.9 1.76,3.31 0.01,0.84 -0.11,1.51 -0.36,2 -0.24,0.49 -0.61,0.89 -1.09,1.22 -0.48,0.32 -1.09,0.58 -1.81,0.76z"/>
    <path class="fil1" d="M270.23 28.16l-0.61 2.78c-1.15,-0.21 -2.03,-0.65 -2.64,-1.3 -0.62,-0.65 -0.93,-1.58 -0.95,-2.78 -0.01,-1.38 0.31,-2.38 0.97,-3 0.65,-0.61 1.48,-0.94 2.49,-0.95 0.59,-0 1.12,0.12 1.6,0.36 0.49,0.25 0.91,0.62 1.27,1.12 0.13,-0.4 0.28,-0.72 0.44,-0.93 0.28,-0.36 0.64,-0.63 1.09,-0.83 0.46,-0.2 1,-0.31 1.64,-0.31 0.79,-0.01 1.56,0.15 2.29,0.46 0.73,0.32 1.3,0.78 1.7,1.37 0.4,0.61 0.6,1.39 0.61,2.38 0.01,0.96 -0.13,1.72 -0.41,2.27 -0.29,0.56 -0.72,1.02 -1.27,1.38 -0.56,0.37 -1.26,0.65 -2.11,0.85l-0.53 -2.92c0.76,-0.12 1.29,-0.3 1.58,-0.55 0.29,-0.25 0.44,-0.56 0.43,-0.93 -0,-0.4 -0.19,-0.72 -0.57,-0.98 -0.37,-0.26 -0.87,-0.38 -1.5,-0.37 -0.63,0.01 -1.12,0.14 -1.47,0.39 -0.34,0.26 -0.51,0.6 -0.51,1.03 0,0.23 0.08,0.55 0.24,0.95l-2.71 -0.12c0.03,-0.16 0.04,-0.29 0.04,-0.38 0,-0.39 -0.16,-0.7 -0.48,-0.96 -0.33,-0.25 -0.7,-0.38 -1.14,-0.37 -0.42,0 -0.74,0.11 -0.99,0.3 -0.25,0.19 -0.37,0.46 -0.36,0.8 0,0.34 0.14,0.62 0.42,0.83 0.27,0.22 0.74,0.36 1.42,0.43z"/>
    <path class="fil1" d="M270.66 15.48c-0.74,0.01 -1.31,0.16 -1.73,0.45 -0.42,0.29 -0.63,0.64 -0.62,1.06 0.01,0.39 0.2,0.71 0.58,0.96 0.38,0.26 0.95,0.37 1.71,0.37 0.76,-0.01 1.34,-0.15 1.74,-0.41 0.4,-0.28 0.6,-0.61 0.59,-1.01 0,-0.41 -0.2,-0.76 -0.59,-1.03 -0.4,-0.26 -0.95,-0.4 -1.68,-0.39zm6.14 5.34l-0.5 -2.91c0.53,-0.08 0.89,-0.22 1.11,-0.4 0.22,-0.19 0.32,-0.41 0.32,-0.68 -0.01,-0.46 -0.32,-0.83 -0.94,-1.09 -0.45,-0.19 -1.41,-0.32 -2.88,-0.4 0.47,0.34 0.82,0.7 1.04,1.06 0.22,0.37 0.33,0.8 0.34,1.28 0.01,0.94 -0.41,1.75 -1.28,2.41 -0.86,0.66 -1.96,1 -3.29,1.01 -0.91,0.01 -1.73,-0.15 -2.48,-0.48 -0.75,-0.32 -1.31,-0.77 -1.7,-1.35 -0.39,-0.57 -0.58,-1.3 -0.6,-2.18 -0,-1.06 0.22,-1.9 0.68,-2.55 0.46,-0.65 1.2,-1.17 2.22,-1.56 1.02,-0.39 2.36,-0.59 4.04,-0.61 2.46,-0.03 4.28,0.36 5.43,1.15 1.15,0.79 1.74,1.9 1.76,3.31 0.01,0.84 -0.11,1.51 -0.36,2 -0.24,0.49 -0.61,0.89 -1.09,1.22 -0.48,0.32 -1.09,0.58 -1.81,0.76z"/>
   </g>
   <g>
    <path class="fil2" d="M0.21 58.66l-0.21 -31.08 15.92 -0.07c2.41,-0.18 4.48,0.12 6.78,0.73 1.52,0.49 2.71,1.46 3.85,2.71 0.84,1.46 1.35,3.41 1.38,5.01 0.03,1.61 -0.47,3.15 -1.18,4.38 -0.75,1.5 -1.68,2.43 -2.83,3.07 -1.15,0.63 -2.27,1 -3.39,1.37 0.79,0.12 1.79,0.53 2.48,1.17 0.48,0.34 1.19,0.98 1.63,1.57 0.44,0.6 0.88,1.2 1.29,2.06l4.52 8.96 -10.87 0.01 -4.95 -9.56c-0.4,-0.86 -1.06,-1.76 -1.77,-2.4 -0.7,-0.64 -1.48,-0.76 -2.26,-0.87l-0.81 0.15 0 12.59 -9.56 0.2zm9.37 -18.69l3.97 0.04c1.08,-0.11 1.89,-0.26 2.71,-0.4 0.56,-0.19 1.11,-0.37 1.49,-1.12 0.34,-0.49 0.67,-0.97 0.53,-1.79 0.11,-0.79 -0.29,-1.65 -0.99,-2.29 -0.95,-0.68 -2.26,-0.87 -3.59,-0.8l-4 0.22 -0.11 6.14z"/>
    <path class="fil2" d="M30.75 47.36c-0.06,-3.22 1.22,-6.51 3.38,-8.6 2.46,-2.32 5.85,-3.69 9.25,-3.46 3.75,-0.25 7.53,1.1 10.29,3.92 1.8,2.14 2.72,4.95 2.55,7.87 0.32,3.25 -0.92,6.29 -3.34,8.34 -2.46,2.32 -5.85,3.69 -9.51,3.42 -2.93,0.1 -5.97,-0.88 -8.59,-2.88 -2.62,-1.99 -4.23,-5.43 -4.03,-8.62zm8.49 -0.09c-0.23,1.57 0.36,3 1.2,4.45 0.66,0.9 1.93,1.35 3,1.24 1.3,0.19 2.45,-0.43 3.13,-1.41 0.97,-1.2 1.24,-3.04 1.21,-4.64 0.19,-1.31 -0.35,-2.99 -1.24,-4.19 -0.66,-0.91 -1.66,-1.31 -2.95,-1.51 -1.08,0.11 -2.24,0.74 -3.17,1.68 -0.71,1.23 -1.2,2.77 -1.18,4.38z"/>
    <polygon class="fil2" points="61.01,27.18 70.54,27.25 70.56,37.96 80.9,37.87 80.88,27.16 90.45,26.96 90.62,58.29 80.83,58.2 80.82,45.62 70.48,45.7 70.48,58.28 60.96,58.23 "/>
    <path class="fil2" d="M95.09 47.72l9.08 -0.53c0.11,1.08 0.69,2.5 1.36,3.4 0.88,1.2 2.61,2 4.21,1.96 1.04,0.16 2.16,-0.21 3.05,-0.89 1.19,-0.89 1.46,-2.72 0.57,-3.92 -0.21,-0.3 -0.47,-0.34 -0.7,-0.64 -1.48,-0.75 -2.96,-1.51 -4.82,-1.51 -3.07,-0.72 -6.33,-2 -8.95,-3.99 -1.66,-1.31 -2.65,-3.6 -2.6,-5.74 -0.03,-1.6 0.5,-3.4 1.21,-4.64 1.01,-1.46 2.54,-2.83 4.2,-3.39 2.53,-0.97 4.98,-1.41 7.61,-1.29 3.23,-0.32 6.3,0.39 8.96,2.12 2.14,1.65 3.61,4.28 3.75,6.97l-9.13 0.8c-0.07,-1.35 -0.43,-2.47 -1.4,-3.14 -0.95,-0.68 -1.95,-1.09 -3.03,-0.98 -1.03,-0.16 -1.89,0.26 -2.49,0.7 -0.6,0.45 -0.97,1.2 -1.05,1.72 0.18,0.57 0.37,1.13 0.84,1.47 0.96,0.67 2,0.82 3.3,1.01 3.11,0.46 6.15,1.44 8.89,2.65 1.74,0.79 2.88,2.03 3.98,3.53 0.85,1.46 1.17,2.85 1.2,4.45 -0.05,2.14 -0.58,3.93 -1.62,5.65 -1.05,1.72 -2.57,3.1 -4.54,3.88 -2.23,0.75 -4.98,1.41 -7.35,1.33 -5.31,0.02 -8.86,-1.04 -10.92,-3.21 -2.11,-1.92 -3.28,-4.77 -3.63,-7.76z"/>
   </g>
   <g id="IP65">
    <path class="fil0" d="M24.44 117.96c-1.53,0.11 -3.41,0.63 -4.66,1.42l-0.67 0.28 0.04 -0.54 -0.06 -0.77 -3.92 0.04 -3.92 0.05 0.25 20.06 -0.07 19.93 3.92 -0.05 3.92 -0.05 0.17 -7.76 -0.16 -7.89 0.74 0.49c1.68,0.88 3.3,1 5.25,1.25 3.38,-0.09 6.51,-1.4 8.73,-3.65 2.43,-2.34 3.5,-5.45 3.73,-9.26 0.13,-7.22 -3.98,-12.66 -10.13,-13.54 -0.86,-0.17 -2.49,-0.29 -3.15,-0zm1.78 6.15c1.82,0.57 3.34,2.32 3.97,4.44 0.28,0.68 0.24,3.09 0.16,4.18 -0.56,3.68 -2.64,5.62 -5.79,5.6 -1.08,-0.07 -1.95,-0.25 -2.68,-0.73 -0.86,-0.17 -1.97,-1.57 -2.34,-2.47l-0.42 -0.36 0.11 -3.5 -0.1 -3.4 0.48 -0.74c1.25,-2.64 3.94,-3.77 6.61,-3.03z"/>
    <path class="fil0" d="M49.59 117.79c-5.27,0.61 -6.99,2.13 -7.68,6.13 -0.2,1.41 -0.06,24.97 0.15,26.74 0.71,4.22 2.01,6.06 5.22,6.84 1.82,0.57 2.9,0.64 5.84,0.74 3.15,0.01 4.14,-0.14 5.8,-0.57 3.33,-0.86 4.73,-2.51 5.33,-6.74 0.2,-1.41 0.2,-8.31 0.06,-11.18 -0.25,-3.08 -0.4,-4.08 -1.32,-5.02 -1.42,-1.53 -3.01,-2.18 -5.62,-2.15 -2.39,-0.06 -3.73,0.5 -5.33,1.7 -0.67,0.28 -1.12,0.47 -1.12,0.47 -0.22,0.1 -0.15,-7.9 0.01,-8.76 0.2,-1.41 0.55,-1.83 2.08,-1.94 1.3,-0.02 1.72,0.35 2.09,1.25 0,0 0.16,0.99 0.22,1.77l0.02 1.32 4.01 0.18 4.15 -0.14 -0.15 -2.86c0.01,-1.86 -0.15,-2.85 -0.33,-3.31 -0.5,-2.45 -2.38,-3.79 -5.72,-4.25 -1.41,-0.21 -6.4,-0.24 -7.72,-0.22zm4.96 21.28c0.1,0.22 0.41,0.36 0.51,0.58 0.19,0.45 0.28,0.68 0.2,5.49 0.04,4.5 0.23,4.95 -0.02,5.59 -0.26,0.64 -0.71,0.83 -1.7,0.97 -1.08,-0.08 -1.62,-0.11 -2.03,-0.47 -0.51,-0.59 -0.48,-1.13 -0.71,-6.08 0.05,-4.26 0.19,-4.58 0.22,-5.13 0.25,-0.64 0.47,-0.73 1.15,-1.01 0.45,-0.18 1.85,0.03 2.39,0.07z"/>
    <path class="fil0" d="M66.1 118.31c0,0 0.13,4.72 0.2,10.53l-0.02 10.63 3.93 -0.05 3.7 0.04 0.16 -0.86c0.01,-1.87 0.36,-2.28 2.21,-2.26 1.3,-0.01 1.94,0.25 2.13,0.7l0.19 0.46 0.03 6.35 0.13 6.58 -0.13 0.32c-0.49,0.73 -0.71,0.83 -2.01,0.84 -1.63,-0.12 -1.94,-0.25 -2.16,-2.02 -0.09,-0.23 -0.12,-1.54 -0.18,-2.32l0.01 -1.86 -4.15 0.14 -4.14 0.14 -0.04 2.41c0.14,2.86 0.26,4.4 0.83,5.75 0.44,1.68 1.36,2.62 2.72,3.37 1.92,0.8 3.54,0.91 7.46,0.87 3.25,0.23 4.46,-0.02 6.12,-0.44 2.78,-0.9 3.97,-2.45 4.53,-6.14 0.29,-1.19 0.12,-12.26 -0.05,-14.57 -0.13,-1.54 -0.47,-2.99 -0.84,-3.89 -0.72,-2.36 -2.63,-3.14 -6.33,-3.19 -1.3,0.01 -1.85,-0.03 -2.52,0.26 -0.89,0.37 -2.01,0.84 -2.81,1.44l-0.8 0.6 0.12 -3.5 -0.21 -3.63 6.09 0.11 5.77 -0.02 -0.11 -3.41 0.12 -3.49 -9.92 0.17c-5.54,-0.07 -10.01,-0.06 -10.01,-0.06z"/>
    <polygon class="fil0" points="2.25,138.39 2.5,158.45 6.42,158.41 10.34,158.36 10.19,138.52 9.94,118.46 6.02,118.51 2.1,118.55 "/>
   </g>
   <g>
    <path class="fil0" d="M222.03 108.35c0.96,0.14 2.07,0.46 2.81,1.06 0.6,0.41 1.76,1.57 2.17,2.12 0.28,0.37 3.55,5.44 7.19,11.38 7.28,11.88 9.99,16.21 14.33,23.08 1.87,3.22 2.93,5.02 3.04,5.53 0.61,1.57 0.71,3.22 0.32,4.97 -0.98,2.49 -2.71,4.37 -5.28,5.16l-1.01 0.19 -24.3 0.13 -24.44 -0.04 -0.78 -0.28c-2.53,-0.69 -4.57,-2.63 -5.38,-5.21 -0.61,-1.57 -0.4,-3.18 0,-4.92 0.23,-0.46 2.12,-3.64 6.55,-11.06 3.39,-5.75 7.64,-13.03 9.54,-16.21 1.9,-3.18 4.43,-7.42 5.65,-9.21 2.17,-3.97 2.95,-4.84 4.18,-5.49 1.65,-1.24 3.48,-1.47 5.41,-1.2zm-2.78 -2.53c-2.34,0.32 -4.81,1.62 -6.22,3.55 -0.77,0.87 -23.96,39.61 -24.45,40.85 -1.62,3.55 -0.75,8.12 1.99,10.97 1.44,1.52 3.1,2.58 5.17,3.04l0.79 0.28 24.81 -0.24 24.75 0.1 1.01 -0.19c5.96,-1.61 9.15,-8.38 6.8,-14.14 -0.27,-0.36 -4.71,-7.74 -9.84,-16.03 -5.27,-8.48 -10.82,-17.32 -12.31,-19.67 -1.31,-2.49 -2.85,-4.51 -3.27,-5.07 -2.09,-2.77 -5.69,-4.1 -9.22,-3.46z"/>
    <path class="fil0" d="M225.23 149.72c2.1,2.76 3.73,5.29 3.73,5.29 0.14,0.19 -1.78,1.07 -2.97,1.38 -1.74,0.73 -2.56,0.79 -4.68,0.65 -2.16,0.18 -3.12,0.05 -4.69,-0.51 -1.25,-0.5 -3.09,-1.43 -3.23,-1.6 0.18,-0.14 6.84,-9.54 7.47,-10.6 0.23,-0.46 0.23,-0.46 0.51,-0.09 0,0 1.81,2.4 3.86,5.49zm-3.16 -18.2c1.29,0.19 3.41,1.48 3.37,1.8 -0.19,0.13 -4.26,6.12 -4.4,5.94 -0.18,0.14 -1.25,-1.65 -2.79,-3.68l-2.61 -3.83 0.5 -0.09c1.19,-0.32 1.88,-0.56 3.5,-0.32 1.15,0 1.97,-0.05 2.44,0.19zm9.68 -0.09c2.19,2.12 3.49,4.6 4.26,7.5 0.15,1.34 0.19,4.79 0.01,6.08 -0.44,2.07 -1.38,4.24 -2.42,5.9 -0.77,0.88 -2.32,2.63 -2.46,2.44 -0.18,0.14 -8.47,-11.55 -8.29,-11.69 -0.13,-0.18 4.12,-6.31 4.3,-6.45 0.19,-0.13 0.37,-0.27 0.46,0.23 0.84,1.11 1.45,2.67 1.84,4.7 0.14,0.18 0.09,0.51 0.28,0.37l3.85 -0.6c0,0 -0.1,-0.51 -0.19,-1.02 -0.34,-1.19 -0.95,-2.76 -1.65,-3.68 -0.37,-0.88 -1.81,-2.39 -2.09,-2.76 -0.32,-0.05 -0.32,-0.05 -0.46,-0.23 0.18,-0.14 1.41,-1.94 1.41,-1.94 0,0 0.74,0.6 1.15,1.16zm-19.66 -0.19l0.7 0.92 -0.77 0.88c-1.5,1.43 -2.4,3.27 -2.85,5.34 -0.3,1.1 -0.17,1.29 0.1,0.51 0.49,-1.25 0.99,-2.49 1.76,-3.36 0.41,-0.61 1.77,-2.21 2.27,-2.3 0,0 0.55,0.74 3.07,4.05 1.67,2.21 2.89,4.19 3.03,4.37 0.14,0.19 -0.68,1.38 -3.89,5.85 -2.41,3.27 -4.08,5.99 -4.22,5.8 -0.18,0.14 -1.62,-1.38 -2.46,-2.48 -1.26,-1.66 -2.1,-3.91 -2.63,-6.13 -0.2,-1.01 -0.23,-4.46 0.08,-5.57 0.25,-1.93 1.02,-3.96 2.06,-5.62 0.59,-0.73 2.73,-3.22 3.04,-3.18 0,0 0.28,0.37 0.7,0.92zm9.92 -4.32c1.47,0.05 2.9,0.41 4.14,0.92 1.11,0.33 2.18,0.97 2.31,1.15 0,0 -0.81,1.2 -1.22,1.8 0,0 -0.46,-0.23 -0.92,-0.46 -1.85,-0.92 -3.46,-1.15 -5.58,-1.29 -1.79,-0.09 -3.67,0.46 -5.41,1.19 -0.36,0.28 -0.55,0.41 -0.55,0.41 0,0 -0.28,-0.37 -0.56,-0.73 -0.42,-0.55 -0.7,-0.92 -0.7,-0.92 -0.14,-0.19 0.37,-0.27 0.73,-0.55 2.11,-1.01 3.47,-1.47 6.46,-1.71 0,0 0.64,0.09 1.28,0.19zm-2.78 -2.53c-2.16,0.18 -4.22,0.88 -6.14,1.75l-1.24 0.64 -0.7 -0.92c-0.65,-1.24 -0.97,-1.29 -1.62,-1.38 -0.32,-0.04 -0.5,0.09 -0.72,0.56 -0.36,0.27 -0.36,0.27 -0.27,0.78 -0.05,0.33 -0.09,0.65 0.47,1.38 0.42,0.55 0.7,0.92 0.84,1.1 0,0 -0.36,0.28 -0.55,0.41 -0.36,0.28 -0.95,1.02 -1.5,1.43 -6.18,7 -5.94,17.55 0.88,24.28 1.16,1.16 1.16,1.16 1.11,1.47 -0.77,0.88 -1,1.33 -0.9,1.84 -0.23,0.46 -0.09,0.65 0.23,0.69 0.28,0.37 0.42,0.55 0.74,0.6 0.69,-0.23 0.87,-0.37 1.46,-1.11 0.23,-0.46 0.59,-0.74 0.59,-0.74 0,0 0.32,0.05 0.78,0.28 1.2,0.83 3.23,1.62 5.16,1.89 1.11,0.33 1.42,0.37 3.4,0.33 1.8,0.09 2.48,-0.14 3.31,-0.19 1.7,-0.41 3.58,-0.96 4.99,-1.75 0.56,-0.41 0.92,-0.69 0.92,-0.69 0.14,0.19 0.28,0.37 0.56,0.74 0.7,0.92 0.84,1.1 1.67,1.06 0.64,0.09 1.23,-0.65 1.04,-1.66 0,0 -0.28,-0.37 -0.56,-0.74l-0.56 -0.73 1.32 -1.29c5.14,-5.34 6.21,-13.41 3.02,-20.27 -1.08,-1.8 -2.89,-4.19 -4.37,-5.39 -0.14,-0.18 -0.42,-0.55 -0.42,-0.55 0,0 0.22,-0.46 0.63,-1.06 0.59,-0.74 0.63,-1.06 0.68,-1.38 0.04,-0.32 -0.1,-0.5 -0.38,-0.87 -0.28,-0.37 -0.6,-0.42 -0.92,-0.46 -0.5,0.09 -0.87,0.37 -1.5,1.43l-0.77 0.87 -1.06 -0.64c-3.1,-1.43 -6.45,-2.07 -9.62,-1.7z"/>
   </g>
   <g>
    <path class="fil0" d="M399.41 49.55l3.9 -0.07 0.21 12.69c0.02,0.79 0.27,1.49 1.39,1.47 1.12,-0.02 1.33,-0.9 1.32,-1.62l-0.21 -12.57 3.9 -0.06 0.2 12.08c0.06,2.82 -1.16,5.02 -5.17,5.08 -3.32,0.05 -5.27,-1.5 -5.33,-4.91l-0.2 -12.08z"/>
    <path class="fil0" d="M415.49 60.38l0.02 1.21c0.01,0.95 0.36,1.89 1.6,1.87 0.9,-0.02 1.29,-0.85 1.28,-1.69 -0.03,-1.4 -1.19,-1.87 -2.23,-2.52 -1.11,-0.55 -2.12,-1.28 -3.01,-2.15 -0.8,-0.91 -1.23,-2.1 -1.19,-3.31 -0.25,-2.41 1.49,-4.57 3.9,-4.84 0.31,-0.02 0.62,-0.03 0.94,-0.02 2.55,-0.18 4.77,1.7 5.02,4.24 0.05,0.33 0.05,0.67 0.02,1l-3.58 0.06c-0.02,-0.96 -0.04,-2.31 -1.33,-2.39 -0.63,-0.08 -1.22,0.36 -1.33,0.99l0 0.14c-0.1,1.01 0.42,1.51 1.22,2.03 1.29,0.69 2.52,1.45 3.7,2.31 0.9,0.85 1.43,2 1.51,3.22l0.01 0.46 -0.02 0.26 0.03 0.26 0.01 0.48c-0.07,2.18 -1.71,4.04 -3.95,4.33 -0.34,0.04 -0.69,0.04 -1.04,0.02 -3.6,0.06 -5.14,-1.92 -5.17,-4.14l-0.04 -1.78 3.63 -0.06 -0.02 -0z"/>
    <path class="fil0" d="M363.48 81.77c17.82,-0.25 32.08,-14.9 31.83,-32.72 -0.25,-17.83 -14.9,-32.08 -32.72,-31.83 -17.82,0.25 -32.08,14.9 -31.83,32.72l0 0.29c0.3,17.77 14.95,31.93 32.72,31.64l0.13 -0 -0.13 -0.1z"/>
    <path class="fil1" d="M363.38 75.72c14.52,-0.29 26.06,-12.29 25.77,-26.81 -0.29,-14.52 -12.29,-26.06 -26.81,-25.77 -14.52,0.29 -26.05,12.28 -25.77,26.81 0,0 0,0.01 -0,0.02 0.3,14.51 12.3,26.04 26.81,25.75z"/>
    <path class="fil0" d="M346.92 32.44l5.94 -0.1 0.33 19.31c0.02,1.21 0.42,2.27 2.1,2.24 1.69,-0.03 2.02,-1.4 2,-2.48l-0.31 -18.93 5.95 -0.09 0.31 18.4c0.07,4.3 -1.77,7.6 -7.9,7.7 -5.04,0.09 -8.01,-2.27 -8.1,-7.43l-0.31 -18.61z"/>
    <polygon class="fil0" points="365.84,66.81 365.42,41.37 371.36,41.27 371.7,61.62 378.99,61.49 379.08,66.59 "/>
    <g>
     <path class="fil0" d="M354.7 63.78l0.76 -0.01c0.53,-0.01 0.68,0.33 0.69,0.72 0,0.34 0.06,0.68 0.15,1l0.51 -0.01c-0.1,0 -0.14,-0.17 -0.16,-0.24 -0.02,-0.08 -0.01,-0.59 -0.02,-0.88 0,-0.39 -0.32,-0.72 -0.71,-0.74 0.43,-0.06 0.75,-0.43 0.75,-0.86 -0.02,-0.92 -0.54,-1.13 -1.35,-1.11l-1.1 0.01 0.06 3.96 0.44 -0.01 -0.03 -1.74 -0 -0.1zm-0.04 -1.91l0.63 -0c0.28,-0.01 0.81,-0.02 0.84,0.69 0.03,0.38 -0.25,0.71 -0.63,0.75l-0.82 0.01 -0.02 -1.42 -0.01 -0.02z"/>
    </g>
    <path class="fil0" d="M352.21 63.48c0.02,-1.78 1.49,-3.22 3.28,-3.19 1.79,0.01 3.22,1.49 3.2,3.27 -0.02,1.75 -1.43,3.17 -3.18,3.2 -1.79,0.02 -3.27,-1.42 -3.29,-3.22 -0.01,-0.02 -0.01,-0.04 -0,-0.06zm-0.38 0.01c0.03,1.99 1.67,3.58 3.67,3.55 1.99,-0.03 3.59,-1.67 3.56,-3.67 -0.03,-2 -1.68,-3.59 -3.68,-3.56 -1.99,0.05 -3.57,1.68 -3.55,3.68z"/>
    <path class="fil0" d="M322.54 56.69l-0.02 -1.11c-0.02,-1.42 -0.55,-2.15 -1.26,-2.14 -1.23,0.02 -1.5,0.67 -1.49,1.77l0.14 8.31c0.02,0.92 0.4,1.46 1.43,1.45 1.33,-0.02 1.41,-1.41 1.4,-2.41l-0.03 -1.51 3.9 -0.07 0.04 2.1c0.04,2.86 -1.57,4.89 -5.6,4.96 -3.48,0.05 -4.94,-1.69 -5.08,-4.92l-0 -0.16 -0 -0 -0.12 -7.07 -0 -0.17 0 -0.07c0.02,-3.45 1.7,-5.11 5.18,-5.17 3.56,-0.06 5.34,1.35 5.4,4.73l0.02 1.4 -3.9 0.07z"/>
    <path class="fil0" d="M326.29 22.98l-0.63 -0.44c-0.88,-0.71 -1.51,-0.7 -1.9,-0.2 -0.37,0.5 -0.27,1.2 0.23,1.57 0,0.01 0.02,0.02 0.02,0.02l0.12 0 4.93 3.57c0.37,0.37 0.97,0.36 1.34,-0.02 0,0 0,0 0,-0.01 0.58,-0.8 -0.21,-1.45 -0.83,-1.88l-0.9 -0.67 1.85 -2.41 1.21 0.87c1.73,1.24 2.21,3.08 0.47,5.48 -1.74,2.4 -3.52,2.24 -5.44,0.76l-3.84 -3.04c-1.67,-0.82 -2.36,-2.87 -1.54,-4.54 0.17,-0.32 0.38,-0.62 0.63,-0.88 1.44,-1.92 3.16,-2.57 5.19,-1.11l0.83 0.61 -1.64 2.32 -0.1 0z"/>
    <polygon class="fil0" points="335.29,24.55 327.13,15.37 329.29,13.46 335.82,20.8 338.45,18.46 340.07,20.28 "/>
    <g>
     <path class="fil0" d="M343.82 17.99l-1 -2.14 1.87 -1.15 1.57 1.86 2.51 -1.48 -8.5 -9.33 -3 1.76 3.87 11.96 2.47 -1.46 0.21 -0.02zm-0.29 -5.1l-1.44 0.83 -1.98 -5.17 3.42 4.35z"/>
    </g>
    <path class="fil0" d="M351.24 10.03l0.22 0.83c0.18,0.67 0.55,1.22 1.44,1 0.88,-0.23 0.78,-0.83 0.62,-1.44 -0.26,-1 -1.18,-1.17 -2.03,-1.42 -0.89,-0.19 -1.73,-0.53 -2.5,-1.01 -0.72,-0.49 -1.23,-1.23 -1.44,-2.07 -0.66,-1.66 0.16,-3.54 1.82,-4.19l0.11 -0c0.22,-0.07 0.44,-0.13 0.65,-0.16 1.79,-0.64 3.75,0.27 4.39,2.06 0,0 0,0 0.01,0 0.09,0.26 0.16,0.54 0.18,0.82l-2.64 0.66c-0.22,-0.68 -0.43,-1.63 -1.36,-1.47 -0.48,0.06 -0.82,0.49 -0.79,0.96 0.11,0.73 0.57,0.99 1.23,1.23 1.04,0.26 2.05,0.59 3.03,1.01 0.95,0.54 1.6,1.49 1.77,2.57 0.66,1.68 -0.16,3.59 -1.82,4.29 -0.25,0.1 -0.5,0.16 -0.75,0.18 -2.55,0.67 -3.99,-0.49 -4.42,-2.05l-0.32 -1.27 2.58 -0.61 0 0.08z"/>
    <path class="fil0" d="M360.49 8.49l0.01 0.85c0.01,0.72 0.27,1.32 1.2,1.28 0.93,-0.03 0.94,-0.64 0.91,-1.26 -0.02,-1.02 -0.9,-1.38 -1.68,-1.86 -0.79,-0.35 -1.51,-0.81 -2.15,-1.38 -0.62,-0.66 -0.95,-1.53 -0.93,-2.43 -0.24,-1.79 1.01,-3.42 2.79,-3.67 0,0 0,0 0.01,0l0.72 -0.01 0.04 -0.01 0.71 -0.01c1.56,0.14 2.86,1.34 3.08,2.95 0.04,0.3 0.04,0.6 0.02,0.89l-2.65 0.05c-0.01,-0.72 -0.03,-1.71 -1.02,-1.73 -0.45,-0.07 -0.88,0.24 -0.95,0.7 0,0 0,0 0,0l0 0.16c-0.04,0.64 0.34,1.23 0.93,1.48 0.93,0.49 1.84,1.05 2.69,1.66 0.8,0.74 1.23,1.79 1.17,2.88 0.31,1.8 -0.89,3.52 -2.7,3.83 0,0 0,0 0,0 -0.27,0.03 -0.54,0.04 -0.8,0.01 -2.65,0.04 -3.81,-1.34 -3.84,-2.95l-0.03 -1.32 2.67 -0.05 -0.23 -0.07z"/>
    <polygon class="fil0" points="366.98,12.66 369.26,0.6 372.11,1.14 369.81,13.2 "/>
    <polygon class="fil0" points="372.11,13.6 376.12,1.98 382.52,4.18 381.72,6.51 378.02,5.24 377.32,7.3 380.71,8.47 379.92,10.8 376.53,9.62 374.84,14.53 "/>
    <polygon class="fil0" points="379.56,16.35 385.69,5.7 388.19,7.13 382.06,17.79 "/>
    <polygon class="fil0" points="383.93,18.87 391.87,9.5 396.9,13.77 395.32,15.64 392.47,13.24 391.01,14.96 393.77,17.29 392.17,19.17 389.43,16.85 387.72,18.86 390.7,21.39 389.12,23.27 "/>
    <g>
     <path class="fil0" d="M392.56 27.59c0.46,0.73 1.13,1.3 1.92,1.65 1,0.29 2.08,0.03 2.84,-0.68l4.28 -3.38c1.03,-0.54 1.68,-1.61 1.67,-2.77 -0.27,-1.08 -0.8,-2.08 -1.54,-2.9l-1.94 -2.47 -9.65 7.47 2.4 3.05 -0 0.02zm7.28 -7.02c0.83,1.13 1.07,1.56 0.04,2.47l-3.14 2.47c-1.27,1.05 -1.86,1.53 -2.98,-0.08l6.08 -4.86z"/>
    </g>
    <polygon class="fil0" points="322.4,86.1 333.62,85.91 333.67,88.81 326.65,88.92 326.69,91.07 333.2,90.97 333.24,93.73 326.73,93.84 326.77,96.51 334,96.39 334.05,99.46 322.63,99.65 "/>
    <path class="fil0" d="M342.08 93.87l-0.08 -4.26 -3.55 4.33 3.63 -0.06zm0.05 2.92l-6.86 0.11 -0.05 -3.1 6.72 -8.27 3.28 -0.05 0.14 8.33 1.7 -0.03 0.05 2.92 -1.7 0.02 0.05 2.54 -3.28 0.05 -0.04 -2.53z"/>
    <path class="fil0" d="M355.27 90.01c-0.01,-0.73 -0.21,-1.3 -0.58,-1.71 -0.38,-0.41 -0.83,-0.62 -1.36,-0.61 -0.5,0.01 -0.91,0.21 -1.23,0.59 -0.33,0.38 -0.48,0.95 -0.47,1.7 0.01,0.76 0.19,1.33 0.54,1.73 0.35,0.39 0.78,0.59 1.29,0.58 0.53,-0.01 0.97,-0.21 1.31,-0.61 0.34,-0.39 0.51,-0.95 0.5,-1.67zm-6.83 6.16l3.73 -0.53c0.1,0.53 0.28,0.9 0.52,1.1 0.24,0.21 0.53,0.32 0.87,0.31 0.6,-0 1.07,-0.32 1.4,-0.93 0.24,-0.46 0.41,-1.41 0.51,-2.87 -0.45,0.48 -0.9,0.82 -1.37,1.04 -0.47,0.22 -1.02,0.34 -1.64,0.35 -1.22,0.02 -2.25,-0.4 -3.1,-1.24 -0.84,-0.85 -1.28,-1.93 -1.3,-3.25 -0.02,-0.91 0.18,-1.72 0.59,-2.47 0.41,-0.75 0.99,-1.31 1.73,-1.7 0.74,-0.39 1.68,-0.6 2.81,-0.61 1.36,-0.03 2.45,0.19 3.27,0.64 0.83,0.45 1.49,1.18 2.01,2.19 0.5,1 0.77,2.34 0.8,4 0.04,2.45 -0.45,4.25 -1.46,5.4 -1.01,1.15 -2.42,1.74 -4.25,1.78 -1.07,0.02 -1.93,-0.09 -2.56,-0.33 -0.63,-0.25 -1.16,-0.6 -1.57,-1.08 -0.43,-0.48 -0.75,-1.07 -0.98,-1.79z"/>
    <path class="fil0" d="M369.25 85.08l0.23 13.78 -3.8 0.07 -0.16 -9.03c-0.61,0.47 -1.2,0.87 -1.77,1.17 -0.57,0.3 -1.29,0.59 -2.15,0.87l-0.06 -3.08c1.28,-0.43 2.27,-0.94 2.96,-1.54 0.7,-0.59 1.24,-1.32 1.62,-2.17l3.12 -0.05z"/>
    <path class="fil0" d="M380.52 89.59c-0.02,-0.73 -0.21,-1.3 -0.58,-1.71 -0.38,-0.41 -0.83,-0.62 -1.36,-0.61 -0.5,0.01 -0.91,0.21 -1.24,0.59 -0.33,0.38 -0.48,0.95 -0.46,1.7 0.01,0.76 0.19,1.33 0.54,1.73 0.35,0.39 0.78,0.59 1.29,0.58 0.53,-0.01 0.97,-0.21 1.31,-0.61 0.34,-0.39 0.51,-0.95 0.5,-1.67zm-6.83 6.16l3.73 -0.53c0.1,0.53 0.28,0.89 0.52,1.1 0.24,0.21 0.53,0.32 0.87,0.31 0.6,-0 1.07,-0.33 1.4,-0.93 0.25,-0.46 0.41,-1.41 0.51,-2.87 -0.44,0.48 -0.9,0.82 -1.37,1.04 -0.47,0.22 -1.02,0.34 -1.64,0.35 -1.22,0.02 -2.25,-0.4 -3.1,-1.24 -0.84,-0.85 -1.28,-1.93 -1.3,-3.25 -0.02,-0.91 0.18,-1.72 0.59,-2.47 0.41,-0.75 0.98,-1.31 1.72,-1.7 0.74,-0.39 1.68,-0.6 2.81,-0.61 1.36,-0.03 2.45,0.19 3.27,0.64 0.83,0.45 1.5,1.18 2,2.18 0.51,1.01 0.78,2.34 0.81,4 0.04,2.45 -0.45,4.25 -1.46,5.4 -1.01,1.16 -2.42,1.75 -4.25,1.78 -1.09,0.02 -1.93,-0.09 -2.56,-0.33 -0.63,-0.25 -1.16,-0.6 -1.57,-1.08 -0.43,-0.48 -0.75,-1.07 -0.98,-1.79z"/>
    <path class="fil0" d="M386.04 85.03l10.99 -0.18 0.04 2.54c-0.94,0.88 -1.73,1.82 -2.35,2.83 -0.75,1.24 -1.34,2.61 -1.77,4.11 -0.34,1.17 -0.56,2.55 -0.65,4.14l-3.76 0.07c0.26,-2.22 0.69,-4.08 1.3,-5.59 0.61,-1.5 1.59,-3.12 2.94,-4.85l-6.69 0.11 -0.06 -3.18z"/>
    <path class="fil0" d="M402.45 91.49c0.03,1.73 0.2,2.9 0.52,3.53 0.31,0.63 0.76,0.93 1.34,0.92 0.38,-0 0.71,-0.15 0.98,-0.42 0.28,-0.27 0.48,-0.7 0.6,-1.29 0.12,-0.58 0.18,-1.48 0.16,-2.71 -0.03,-1.79 -0.2,-3.01 -0.52,-3.62 -0.31,-0.62 -0.77,-0.92 -1.38,-0.91 -0.62,0.01 -1.07,0.33 -1.34,0.98 -0.26,0.64 -0.39,1.8 -0.36,3.51zm-3.73 0.05c-0.04,-2.57 0.39,-4.38 1.3,-5.43 0.91,-1.04 2.32,-1.58 4.21,-1.62 0.91,-0.02 1.66,0.08 2.26,0.3 0.58,0.21 1.07,0.5 1.45,0.85 0.37,0.36 0.67,0.73 0.89,1.12 0.22,0.39 0.39,0.85 0.53,1.38 0.28,1.01 0.42,2.06 0.43,3.16 0.04,2.46 -0.34,4.26 -1.15,5.42 -0.82,1.15 -2.24,1.75 -4.27,1.78 -1.14,0.02 -2.06,-0.15 -2.77,-0.5 -0.71,-0.35 -1.3,-0.88 -1.75,-1.57 -0.34,-0.49 -0.6,-1.18 -0.8,-2.03 -0.2,-0.86 -0.3,-1.82 -0.32,-2.87z"/>
   </g>
  </g>
 </g>
</svg>
